<svg width="536" height="173" viewBox="0 0 536 173" fill="none" xmlns="http://www.w3.org/2000/svg">
<g clip-path="url(#clip0_84_2722)">
<path d="M178.12 168.573V4.00798C178.12 0.476234 173.877 -1.32252 171.339 1.13307L1.22688 165.698C-1.35743 168.198 0.412364 172.573 4.00804 172.573H174.12C176.329 172.573 178.12 170.782 178.12 168.573Z" fill="#FF604A"/>
<path d="M264.558 43.4712C264.558 53.4322 265.73 63.0676 268.073 72.3775C270.482 81.6874 274.193 90.216 279.206 97.9634C284.284 105.646 290.665 111.896 298.347 116.714L286.237 133.901C278.62 129.279 272.142 123.094 266.804 115.346C261.53 107.534 257.364 98.6145 254.304 88.5884C250.984 99.7863 246.394 109.585 240.534 117.983C234.74 126.382 227.839 132.99 219.831 137.807L206.55 121.206C214.753 116.323 221.589 109.845 227.058 101.772C232.592 93.6991 236.693 84.7473 239.362 74.9165C242.032 65.0858 243.399 54.9947 243.464 44.6431V13.3931H264.558V43.4712ZM356.628 165.94H335.73V0.572754H356.628V165.94ZM325.105 165.737H304.401V76.2837H279.597V58.315H304.401V0.697754H325.105V165.737Z" fill="#636363"/>
<path d="M516.82 95.247H464.021V134.247H535.62V152.846H370.62V134.247H441.62V95.247H388.62V46.7402L429.562 7.84668H516.82V95.247ZM410.62 77.247H494.82V25.8466H410.62V77.247Z" fill="#636363"/>
<path d="M388.62 7.84619V38.7159L421.518 7.8462L388.62 7.84619Z" fill="#FF604A"/>
</g>
<defs>
<clipPath id="clip0_84_2722">
<rect width="536" height="173" fill="white"/>
</clipPath>
</defs>
</svg>
