<svg width="87" height="28" viewBox="0 0 87 28" fill="none" xmlns="http://www.w3.org/2000/svg">
<g clip-path="url(#clip0_84_2722)">
<path d="M28.8287 27.2835V0.64869C28.8287 0.0770783 28.1419 -0.21405 27.7312 0.183387L0.19857 26.8182C-0.2197 27.2228 0.066741 27.9309 0.6487 27.9309H28.1813C28.5388 27.9309 28.8287 27.641 28.8287 27.2835Z" fill="#FF604A"/>
<path d="M42.8183 7.03538C42.8183 8.64756 43.008 10.2071 43.3872 11.7139C43.7771 13.2207 44.3777 14.601 45.189 15.8549C46.0109 17.0983 47.0437 18.1099 48.287 18.8897L46.327 21.6714C45.0942 20.9233 44.0457 19.9223 43.1818 18.6683C42.3282 17.4039 41.6539 15.9603 41.1587 14.3376C40.6213 16.15 39.8784 17.7358 38.93 19.0951C37.9922 20.4544 36.8753 21.5239 35.5792 22.3036L33.4297 19.6167C34.7573 18.8264 35.8637 17.7779 36.7489 16.4713C37.6446 15.1648 38.3083 13.7159 38.7403 12.1248C39.1724 10.5337 39.3937 8.90045 39.4042 7.22505V2.16725H42.8183V7.03538ZM57.7198 26.8569H54.3374V0.0922852H57.7198V26.8569ZM52.6178 26.824H49.2668V12.3461H45.2523V9.43784H49.2668V0.112516H52.6178V26.824Z" fill="#636363"/>
<path d="M83.6478 15.4157H75.1023V21.7279H86.6906V24.7382H59.9854V21.7279H71.4767V15.4157H62.8986V7.56493L69.5251 1.27002H83.6478V15.4157ZM66.4593 12.5024H80.0871V4.18331H66.4593V12.5024Z" fill="#636363"/>
<path d="M62.8975 1.27002V6.26627L68.222 1.27002L62.8975 1.27002Z" fill="#FF604A"/>
</g>
<defs>
<clipPath id="clip0_84_2722">
<rect width="86.7514" height="28" fill="white"/>
</clipPath>
</defs>
</svg>
