<svg width="536" height="173" viewBox="0 0 536 173" fill="none" xmlns="http://www.w3.org/2000/svg">
<path d="M178.12 168.573V4.00795C178.12 0.476205 173.877 -1.32255 171.339 1.13304L1.2269 165.698C-1.35741 168.198 0.412384 172.573 4.00806 172.573H174.12C176.329 172.573 178.12 170.782 178.12 168.573Z" fill="#FF604A"/>
<path d="M264.558 43.4714C264.558 53.4324 265.73 63.0678 268.073 72.3777C270.482 81.6876 274.193 90.2162 279.206 97.9636C284.284 105.646 290.665 111.896 298.347 116.714L286.237 133.901C278.62 129.279 272.142 123.094 266.804 115.346C261.53 107.534 257.364 98.6147 254.304 88.5886C250.984 99.7865 246.394 109.585 240.534 117.983C234.74 126.382 227.839 132.99 219.831 137.807L206.55 121.206C214.753 116.323 221.589 109.845 227.058 101.772C232.592 93.6993 236.693 84.7475 239.362 74.9167C242.032 65.086 243.399 54.9949 243.464 44.6433V13.3933H264.558V43.4714ZM356.628 165.94H335.73V0.572998H356.628V165.94ZM325.105 165.737H304.401V76.2839H279.597V58.3152H304.401V0.697998H325.105V165.737Z" fill="white"/>
<path d="M516.82 95.2468H464.021V134.247H535.62V152.846H370.62V134.247H441.62V95.2468H388.62V46.74L429.562 7.84644H516.82V95.2468ZM410.62 77.2468H494.82V25.8464H410.62V77.2468Z" fill="white"/>
<path d="M388.62 7.8464L388.62 38.7161L421.518 7.84641L388.62 7.8464Z" fill="#FF604A"/>
</svg>
