<svg width="376" height="560" viewBox="0 0 376 560" fill="none" xmlns="http://www.w3.org/2000/svg">
<g clip-path="url(#clip0_1704_8023)">
<path d="M92.8947 88.4005L82.3008 96.7544V85.1385L94.7212 75.1934H104V130.807H92.8947V88.4005Z" fill="#3F4150"/>
<path d="M54.7951 132C50.1679 132 46.1252 130.86 42.6669 128.579C39.2574 126.245 36.6272 122.904 34.7763 118.554C32.9254 114.152 32 108.98 32 103.04C32 97.0462 32.9011 91.8747 34.7033 87.5254C36.5542 83.176 39.1844 79.8345 42.5939 77.5007C46.0521 75.1669 50.1192 74 54.7951 74C59.471 74 63.5137 75.1669 66.9233 77.5007C70.3328 79.8345 72.9386 83.176 74.7408 87.5254C76.5917 91.8747 77.5171 97.0462 77.5171 103.04C77.5171 108.98 76.5917 114.152 74.7408 118.554C72.8899 122.904 70.2597 126.245 66.8502 128.579C63.4407 130.86 59.4223 132 54.7951 132ZM54.7951 120.861C58.4482 120.861 61.2732 119.297 63.2702 116.167C65.2672 113.038 66.2657 108.715 66.2657 103.199C66.2657 97.6296 65.2672 93.2538 63.2702 90.0713C61.3219 86.8889 58.4969 85.2977 54.7951 85.2977C51.0933 85.2977 48.2439 86.8889 46.2469 90.0713C44.2986 93.2538 43.3245 97.6296 43.3245 103.199C43.3245 108.715 44.323 113.038 46.32 116.167C48.317 119.297 51.142 120.861 54.7951 120.861Z" fill="#3F4150"/>
<rect width="175" height="181" transform="translate(32 168)" fill="#FFCEC7"/>
<path d="M152 308.165L146.745 295.037L157.254 295.037L152 308.165Z" fill="#3F4150"/>
<path d="M157.254 295.037L207 324.652L207 265.421L157.254 295.037Z" fill="#FF634D"/>
<path d="M146.746 295.036L100.023 267.221C98.6899 266.427 97 267.388 97 268.939L97 321.134C97 322.685 98.6899 323.646 100.023 322.852L146.746 295.036Z" fill="#FF634D"/>
<path d="M179.289 346.209C179.858 347.529 178.89 349 177.452 349H126.535C125.097 349 124.129 347.529 124.698 346.209L146.73 295.033L150.145 303.284C150.826 304.931 153.159 304.931 153.841 303.283L157.254 295.033L179.289 346.209ZM177.447 239C178.872 239 179.84 240.448 179.295 241.765L157.254 295.033L153.83 287.078C153.136 285.466 150.85 285.466 150.156 287.078L146.73 295.033L124.69 241.765C124.146 240.448 125.113 239 126.538 239H177.447Z" fill="#3F4150"/>
<g clip-path="url(#clip1_1704_8023)">
<rect width="175" height="182" transform="translate(32 349)" fill="white"/>
<path d="M71.9954 486.001L89.9204 552L135.56 506.364C136.646 505.278 136.153 503.423 134.67 503.02L71.9954 486.001Z" fill="#3F4150"/>
<path d="M72.0046 485.999L54.984 423.33C54.5812 421.847 52.7261 421.354 51.6395 422.44L6.00006 468.076L72.0046 485.999Z" fill="#3F4150"/>
<path d="M72.0046 486.001L54.0796 552L6.00006 503.924L72.0046 486.001Z" fill="#FF634D"/>
<path d="M71.9954 485.999L89.016 423.33C89.4188 421.847 91.2739 421.354 92.3605 422.44L135.56 465.636C136.646 466.722 136.153 468.577 134.67 468.98L71.9954 485.999Z" fill="#FF634D"/>
</g>
<g clip-path="url(#clip2_1704_8023)">
<rect width="175" height="182" transform="translate(207 201)" fill="#FFEFED"/>
<path d="M270.774 349.393L251.16 321.863C250.52 320.963 250.729 319.714 251.629 319.073L351.933 247.613C353.832 246.26 356.117 248.698 354.644 250.505L273.953 349.496C273.119 350.519 271.54 350.468 270.774 349.393Z" fill="#3F4150"/>
<path d="M367.618 244.048L387.232 271.578C387.873 272.478 387.663 273.726 386.764 274.367L280.415 350.134C279.466 350.81 278.323 349.591 279.06 348.688L364.439 243.944C365.273 242.921 366.852 242.972 367.618 244.048Z" fill="#FF634D"/>
</g>
<rect width="175" height="181" transform="translate(207 383)" fill="#FFCEC7"/>
<path d="M288.773 504.455C287.842 505.255 286.417 505.035 285.771 503.992L250.762 447.524C249.862 446.072 251.079 444.233 252.767 444.493L338.179 457.675C339.867 457.935 340.473 460.055 339.177 461.168L288.773 504.455Z" fill="#FF634D"/>
<path d="M331.679 402.267C332.61 401.467 334.035 401.687 334.681 402.73L369.69 459.198C370.59 460.65 369.373 462.489 367.685 462.228L343.45 458.488C344.208 458.605 344.917 458.085 345.034 457.328C345.151 456.57 344.631 455.86 343.873 455.743L280.871 446.02C280.976 445.852 281.11 445.695 281.275 445.553L331.679 402.267Z" fill="#3F4150"/>
<mask id="mask0_1704_8023" style="mask-type:luminance" maskUnits="userSpaceOnUse" x="123" y="97" width="34" height="36">
<path d="M140 131.625C142.102 131.627 144.183 131.207 146.124 130.386C148.066 129.566 149.829 128.362 151.314 126.845C152.801 125.331 153.981 123.532 154.786 121.551C155.59 119.571 156.003 117.448 156 115.304C156.003 113.161 155.59 111.038 154.786 109.057C153.981 107.077 152.801 105.278 151.314 103.764C149.829 102.246 148.066 101.043 146.124 100.222C144.183 99.402 142.102 98.981 140 98.9837C137.898 98.981 135.817 99.402 133.876 100.222C131.934 101.043 130.171 102.246 128.686 103.764C127.199 105.278 126.019 107.077 125.214 109.057C124.41 111.038 123.997 113.161 124 115.304C123.997 117.448 124.41 119.571 125.214 121.551C126.019 123.532 127.199 125.331 128.686 126.845C130.171 128.362 131.934 129.566 133.876 130.386C135.817 131.207 137.898 131.627 140 131.625Z" fill="white" stroke="white" stroke-width="2" stroke-linejoin="round"/>
<path d="M133.6 115.304L138.4 120.201L148 110.408" stroke="black" stroke-width="2" stroke-linecap="round" stroke-linejoin="round"/>
</mask>
<g mask="url(#mask0_1704_8023)">
<path d="M120.801 95.7195H159.201V134.889H120.801V95.7195Z" fill="#FF604A"/>
</g>
</g>
<defs>
<clipPath id="clip0_1704_8023">
<path d="M0 0H376V560H32C14.3269 560 0 545.673 0 528V0Z" fill="white"/>
</clipPath>
<clipPath id="clip1_1704_8023">
<rect width="175" height="182" fill="white" transform="translate(32 349)"/>
</clipPath>
<clipPath id="clip2_1704_8023">
<rect width="175" height="182" fill="white" transform="translate(207 201)"/>
</clipPath>
</defs>
</svg>
