<svg width="350" height="396" viewBox="0 0 350 396" fill="none" xmlns="http://www.w3.org/2000/svg">
<rect width="175" height="181" fill="#FFCEC7"/>
<path d="M120 140.165L114.745 127.037L125.254 127.037L120 140.165Z" fill="#3F4150"/>
<path d="M125.254 127.037L175 156.652L175 97.4214L125.254 127.037Z" fill="#FF634D"/>
<path d="M114.746 127.036L68.0231 99.2208C66.69 98.4272 65 99.3878 65 100.939L65 153.134C65 154.685 66.69 155.646 68.0231 154.852L114.746 127.036Z" fill="#FF634D"/>
<path d="M147.289 178.209C147.858 179.529 146.89 181 145.452 181H94.5346C93.0974 181 92.1293 179.529 92.6976 178.209L114.73 127.033L118.145 135.284C118.826 136.931 121.159 136.931 121.841 135.283L125.254 127.033L147.289 178.209ZM145.447 71C146.872 71 147.84 72.4479 147.295 73.7647L125.254 127.033L121.83 119.078C121.136 117.466 118.85 117.466 118.156 119.078L114.73 127.033L92.6904 73.7646C92.1456 72.4479 93.1134 71 94.5384 71H145.447Z" fill="#3F4150"/>
<path d="M147.289 178.209C147.858 179.529 146.89 181 145.452 181H94.5346C93.0974 181 92.1293 179.529 92.6976 178.209L114.73 127.033L118.145 135.284C118.826 136.931 121.159 136.931 121.841 135.283L125.254 127.033L147.289 178.209ZM145.447 71C146.872 71 147.84 72.4479 147.295 73.7647L125.254 127.033L121.83 119.078C121.136 117.466 118.85 117.466 118.156 119.078L114.73 127.033L92.6904 73.7646C92.1456 72.4479 93.1134 71 94.5384 71H145.447Z" fill="#3F4150"/>
<rect x="115" y="127" width="10" height="10" fill="#3F4150"/>
<g clip-path="url(#clip0_266_5876)">
<rect width="175" height="182" transform="translate(0 181)" fill="white"/>
<path d="M39.9954 318.001L57.9204 384L103.56 338.364C104.646 337.278 104.153 335.423 102.67 335.02L39.9954 318.001Z" fill="#3F4150"/>
<path d="M40.0046 317.999L22.984 255.33C22.5813 253.847 20.7261 253.354 19.6396 254.44L-25.9999 300.076L40.0046 317.999Z" fill="#3F4150"/>
<path d="M40.0046 318.001L22.0796 384L-25.9999 335.924L40.0046 318.001Z" fill="#FF634D"/>
<path d="M39.9954 317.999L57.016 255.33C57.4187 253.847 59.2739 253.354 60.3604 254.44L103.56 297.636C104.646 298.722 104.153 300.577 102.67 300.98L39.9954 317.999Z" fill="#FF634D"/>
</g>
<g clip-path="url(#clip1_266_5876)">
<rect width="175" height="182" transform="translate(175 33)" fill="#FFEFED"/>
<path d="M238.774 181.393L219.16 153.863C218.52 152.963 218.729 151.714 219.629 151.073L319.933 79.6131C321.832 78.2603 324.117 80.6985 322.644 82.5056L241.953 181.496C241.119 182.519 239.54 182.468 238.774 181.393Z" fill="#3F4150"/>
<path d="M335.62 76.0478L355.234 103.578C355.875 104.478 355.665 105.727 354.766 106.368L248.417 182.134C247.468 182.811 246.325 181.591 247.062 180.688L332.441 75.9447C333.275 74.9214 334.854 74.9727 335.62 76.0478Z" fill="#FF634D"/>
</g>
<rect width="175" height="181" transform="translate(175 215)" fill="#FFCEC7"/>
<path d="M256.775 336.455C255.844 337.255 254.419 337.035 253.773 335.992L218.764 279.524C217.864 278.072 219.081 276.233 220.769 276.493L306.181 289.675C307.869 289.935 308.475 292.055 307.179 293.168L256.775 336.455Z" fill="#FF634D"/>
<path d="M299.682 234.266C300.613 233.467 302.038 233.687 302.684 234.73L337.693 291.198C338.593 292.65 337.376 294.489 335.688 294.228L311.453 290.488C312.21 290.605 312.92 290.085 313.037 289.327C313.154 288.57 312.634 287.86 311.876 287.743L248.874 278.02C248.979 277.852 249.113 277.694 249.278 277.553L299.682 234.266Z" fill="#3F4150"/>
<defs>
<clipPath id="clip0_266_5876">
<rect width="175" height="182" fill="white" transform="translate(0 181)"/>
</clipPath>
<clipPath id="clip1_266_5876">
<rect width="175" height="182" fill="white" transform="translate(175 33)"/>
</clipPath>
</defs>
</svg>
