<svg viewBox="0 0 72 58" fill="none" xmlns="http://www.w3.org/2000/svg">
<path d="M60.8947 14.4005L50.3008 22.7544V11.1385L62.7212 1.19335H72V56.8065H60.8947V14.4005Z" fill="#3F4150"/>
<path d="M22.7951 58C18.1679 58 14.1252 56.8596 10.6669 54.5789C7.25742 52.2451 4.62721 48.9035 2.77633 44.5542C0.925442 40.1518 0 34.9803 0 29.0398C0 23.0462 0.901089 17.8747 2.70327 13.5254C4.55415 9.17604 7.18435 5.83448 10.5939 3.50069C14.0521 1.1669 18.1192 0 22.7951 0C27.471 0 31.5137 1.1669 34.9233 3.50069C38.3328 5.83448 40.9386 9.17604 42.7408 13.5254C44.5917 17.8747 45.5171 23.0462 45.5171 29.0398C45.5171 34.9803 44.5917 40.1518 42.7408 44.5542C40.8899 48.9035 38.2597 52.2451 34.8502 54.5789C31.4407 56.8596 27.4223 58 22.7951 58ZM22.7951 46.8615C26.4482 46.8615 29.2732 45.2967 31.2702 42.1674C33.2672 39.0379 34.2657 34.7151 34.2657 29.1989C34.2657 23.6296 33.2672 19.2538 31.2702 16.0713C29.3219 12.8889 26.4969 11.2977 22.7951 11.2977C19.0933 11.2977 16.2439 12.8889 14.2469 16.0713C12.2986 19.2538 11.3245 23.6296 11.3245 29.1989C11.3245 34.7151 12.323 39.0379 14.32 42.1674C16.317 45.2967 19.142 46.8615 22.7951 46.8615Z" fill="#3F4150"/>
</svg>
