<svg width="40" height="40" viewBox="0 0 40 40" fill="none" xmlns="http://www.w3.org/2000/svg">
<g clip-path="url(#clip0_1895_7658)">
<path d="M19.9984 20.0002L25.1562 38.9909C25.2782 39.4403 25.8404 39.5899 26.1697 39.2606L39.2604 26.171C39.5896 25.8417 39.44 25.2796 38.9907 25.1576L19.9984 20.0002Z" fill="#3F4150"/>
<path d="M20.0016 19.9998L14.8438 1.00908C14.7218 0.559739 14.1596 0.410137 13.8303 0.739377L0.73962 13.829C0.410352 14.1583 0.559966 14.7204 1.00935 14.8424L20.0016 19.9998Z" fill="#3F4150"/>
<path d="M20.0016 20.0002L14.8438 38.9909C14.7218 39.4403 14.1596 39.5899 13.8303 39.2606L0.73962 26.171C0.410352 25.8417 0.559966 25.2796 1.00935 25.1576L20.0016 20.0002Z" fill="#FF634D"/>
<path d="M19.9984 19.9998L25.1562 1.00908C25.2782 0.559739 25.8404 0.410137 26.1697 0.739377L39.2604 13.829C39.5896 14.1583 39.44 14.7204 38.9907 14.8424L19.9984 19.9998Z" fill="#FF634D"/>
</g>
<defs>
<clipPath id="clip0_1895_7658">
<rect width="40" height="40" fill="white"/>
</clipPath>
</defs>
</svg>
