<svg width="24" height="24" viewBox="0 0 24 24" fill="none" xmlns="http://www.w3.org/2000/svg">
<path d="M12.4754 5.68872L15.8579 7.58997L17.7787 10.9927L7.02666 21.7447L3.38016 19.8172L1.72266 16.4422L12.4754 5.68872Z" fill="#FFC72D"/>
<path d="M1.04297 21.0488L1.47947 22.0328L2.42072 22.4265L7.01822 21.7328L1.73672 16.4513L1.04297 21.0488Z" fill="#FFDFAA"/>
<path d="M0.796875 22.6717L1.04138 21.0487L2.41988 22.4265L0.796875 22.6717Z" fill="#402A32"/>
<path d="M16.7067 1.45799C16.846 1.31864 17.0114 1.20809 17.1934 1.13267C17.3754 1.05725 17.5705 1.01843 17.7676 1.01843C17.9646 1.01843 18.1597 1.05725 18.3417 1.13267C18.5238 1.20809 18.6891 1.31864 18.8284 1.45799L22.0099 4.64024C22.2911 4.92153 22.4491 5.30299 22.4491 5.70074C22.4491 6.09848 22.2911 6.47995 22.0099 6.76124L19.3587 9.41324L15.9634 7.71524L14.0547 4.10999L16.7067 1.45799Z" fill="#F92F60"/>
<path d="M14.0548 4.10999L19.3588 9.41324L17.7673 11.004L12.4648 5.70149L14.0548 4.10999Z" fill="#D3D3D3"/>
</svg>
