<svg width="63" height="63" viewBox="0 0 63 63" fill="none" xmlns="http://www.w3.org/2000/svg">
<g filter="url(#filter0_dd_678_8443)">
<g clip-path="url(#clip0_678_8443)">
<path d="M27.3905 17.3438L27.3864 17.3439L26.415 17.3858L24.8742 11.6355C24.2104 9.15836 21.9798 8.20629 20.5922 8.57808C19.8811 8.76874 19.2107 9.25395 18.8039 10.0238C18.3988 10.7907 18.2341 11.8819 18.6174 13.312L22.8381 29.064L21.9545 28.7659L21.9535 28.7662L21.9523 28.7655C21.9509 28.765 21.9484 28.7642 21.9456 28.7632C21.9402 28.7614 21.9318 28.7591 21.9214 28.7556C21.8999 28.7484 21.8683 28.7375 21.828 28.724C21.747 28.6968 21.6306 28.6575 21.488 28.6099C21.2024 28.5144 20.8126 28.3845 20.396 28.2473C19.5574 27.971 18.6261 27.6701 18.2071 27.5529C16.9462 27.2015 15.8973 27.0549 15.0308 27.2443C14.2019 27.4257 13.4798 27.9285 12.8872 29.0319L12.8093 29.1863C12.0549 30.7974 12.7571 32.8122 14.1134 33.627C14.4586 33.8344 15.0932 34.0478 16.0141 34.3552C16.9055 34.6527 18.0046 35.0202 19.1854 35.5315C21.5491 36.5551 24.2653 38.1614 26.4041 40.9726C30.3791 46.1963 37.0497 46.6296 40.5273 45.6828L40.5291 45.6823C43.8382 44.7957 46.1058 43.225 47.6248 41.2353C49.1484 39.2394 49.947 36.7841 50.2494 34.0889C50.8562 28.68 49.4555 22.4212 48.0787 17.2831C47.8085 16.2755 46.9415 15.4052 45.8965 14.8288C45.3813 14.5447 44.8435 14.3437 44.3522 14.2386C43.8536 14.132 43.4381 14.1317 43.1512 14.2086C42.2044 14.4623 41.6014 14.8416 41.2427 15.1416C41.0626 15.2922 40.9418 15.4242 40.8692 15.5136C40.833 15.5583 40.8083 15.5922 40.7946 15.6124C40.7895 15.6199 40.7862 15.6259 40.784 15.6294M27.3905 17.3438L27.39 17.346L27.3907 17.3448L27.3905 17.3438ZM27.3905 17.3438C27.3908 17.3423 27.3912 17.3402 27.3918 17.3374C27.3938 17.3279 27.3978 17.3107 27.4037 17.2877C27.4156 17.2414 27.4363 17.17 27.4685 17.0803C27.533 16.9004 27.6432 16.6496 27.8255 16.379C28.1856 15.8448 28.8351 15.2168 30.007 14.9028C31.1409 14.599 31.9874 14.9128 32.5623 15.3009C32.8541 15.4978 33.077 15.7148 33.2257 15.8824C33.2996 15.9658 33.3547 16.0359 33.3897 16.0831C33.4071 16.1067 33.4196 16.125 33.427 16.1358L33.4338 16.1461L34.1385 17.2514L34.3487 15.9606M34.3487 15.9606C34.3493 15.958 34.35 15.9547 34.3511 15.9509C34.3566 15.931 34.3681 15.8945 34.3887 15.8458C34.4297 15.7483 34.5083 15.5988 34.6526 15.4272C34.9375 15.0886 35.5062 14.6304 36.6311 14.3289C37.5858 14.0731 38.398 14.3858 39.0019 14.7967C39.3034 15.0019 39.5439 15.2261 39.7082 15.399C39.7898 15.485 39.8518 15.5573 39.8922 15.6065C39.9122 15.6309 39.9262 15.65 39.9353 15.6617C39.9398 15.6676 39.9431 15.6721 39.9447 15.6744C39.9455 15.6754 39.9461 15.6759 39.9462 15.676L39.9459 15.675L40.4004 16.2994L40.784 15.6294M34.3487 15.9606L34.3482 15.9627C34.348 15.9642 34.3472 15.9652 34.3471 15.9661L34.3464 15.9673C34.3466 15.9663 34.3478 15.9642 34.3487 15.9606ZM40.784 15.6294C40.7832 15.6307 40.7821 15.6314 40.7817 15.6321L40.7826 15.6318L40.7833 15.6306L40.783 15.6297L40.784 15.6294Z" fill="#FFCEC7" stroke="#FF9486"/>
<path d="M25.1709 10.9373C24.3723 8.89027 22.5111 7.90752 21.014 8.00584C22.3557 8.27217 23.0887 8.8693 23.6291 10.8861L27.1371 23.9783C27.4706 25.2229 28.8491 24.7573 28.5396 23.6025C28.3851 23.0258 28.2044 22.3165 28.0096 21.5316L25.1709 10.9373ZM38.4223 13.9353C39.6173 14.3729 40.35 15.3801 40.35 15.3801L40.3584 15.3654L41.6687 20.2554C41.7202 20.4475 41.6933 20.6522 41.5938 20.8245C41.4943 20.9968 41.3305 21.1225 41.1384 21.174C40.9463 21.2254 40.7415 21.1985 40.5693 21.099C40.397 20.9996 40.2713 20.8358 40.2198 20.6436L38.4223 13.9353ZM31.9335 14.4425C33.1993 14.8487 33.8551 15.8765 33.8551 15.8765L33.8626 15.8465L34.7082 19.0022C34.7597 19.1943 34.7327 19.3991 34.6333 19.5713C34.5338 19.7436 34.37 19.8693 34.1779 19.9208C33.9857 19.9723 33.781 19.9453 33.6088 19.8458C33.4365 19.7464 33.3108 19.5826 33.2593 19.3904L31.9335 14.4425Z" fill="#FFB6AC"/>
</g>
</g>
<defs>
<filter id="filter0_dd_678_8443" x="-4.93945" y="-4.98438" width="72" height="72" filterUnits="userSpaceOnUse" color-interpolation-filters="sRGB">
<feFlood flood-opacity="0" result="BackgroundImageFix"/>
<feColorMatrix in="SourceAlpha" type="matrix" values="0 0 0 0 0 0 0 0 0 0 0 0 0 0 0 0 0 0 127 0" result="hardAlpha"/>
<feOffset dy="4"/>
<feGaussianBlur stdDeviation="6"/>
<feColorMatrix type="matrix" values="0 0 0 0 0 0 0 0 0 0 0 0 0 0 0 0 0 0 0.16 0"/>
<feBlend mode="normal" in2="BackgroundImageFix" result="effect1_dropShadow_678_8443"/>
<feColorMatrix in="SourceAlpha" type="matrix" values="0 0 0 0 0 0 0 0 0 0 0 0 0 0 0 0 0 0 127 0" result="hardAlpha"/>
<feOffset dy="1"/>
<feGaussianBlur stdDeviation="2"/>
<feColorMatrix type="matrix" values="0 0 0 0 0 0 0 0 0 0 0 0 0 0 0 0 0 0 0.03 0"/>
<feBlend mode="normal" in2="effect1_dropShadow_678_8443" result="effect2_dropShadow_678_8443"/>
<feBlend mode="normal" in="SourceGraphic" in2="effect2_dropShadow_678_8443" result="shape"/>
</filter>
<clipPath id="clip0_678_8443">
<rect width="48" height="48" fill="white" transform="translate(7.06055 3.01562)"/>
</clipPath>
</defs>
</svg>
