<svg viewBox="0 0 16 16" fill="none" xmlns="http://www.w3.org/2000/svg">
<path d="M8.6252 3.78C8.8552 3.5975 9.0002 3.315 9.0002 3C9.0002 2.4475 8.5527 2 8.0002 2C7.4477 2 7.0002 2.4475 7.0002 3C7.0002 3.315 7.1477 3.5975 7.3752 3.78L5.6652 6.47C5.4152 6.8625 4.8827 6.96 4.5102 6.68L3.0227 5.5675C3.1352 5.4075 3.2002 5.21 3.2002 5C3.2002 4.4475 2.7527 4 2.2002 4C1.6477 4 1.2002 4.4475 1.2002 5C1.2002 5.545 1.6377 5.99 2.1802 6L2.9952 11.4375C3.1127 12.22 3.7852 12.8 4.5777 12.8H11.4227C12.2152 12.8 12.8877 12.22 13.0052 11.4375L13.8202 6C14.3627 5.99 14.8002 5.545 14.8002 5C14.8002 4.4475 14.3527 4 13.8002 4C13.2477 4 12.8002 4.4475 12.8002 5C12.8002 5.21 12.8652 5.4075 12.9777 5.5675L11.4927 6.6825C11.1202 6.9625 10.5877 6.865 10.3377 6.4725L8.6252 3.78Z" fill="currentColor"/>
</svg>
