<svg width="92" height="92" viewBox="0 0 92 92" fill="none" xmlns="http://www.w3.org/2000/svg">
<path d="M0 46C-9.00149e-08 39.9592 1.18982 33.9775 3.50154 28.3965C5.81325 22.8156 9.20158 17.7446 13.4731 13.4731C17.7446 9.20159 22.8156 5.81325 28.3965 3.50154C33.9775 1.18982 39.9591 0 45.9999 0C52.0407 0 58.0224 1.18982 63.6034 3.50154C69.1843 5.81325 74.2553 9.20159 78.5268 13.4731C82.7983 17.7446 86.1866 22.8156 88.4983 28.3965C90.8101 33.9775 91.9999 39.9592 91.9999 46C91.9999 58.1999 87.1535 69.9002 78.5268 78.5268C69.9001 87.1535 58.1999 91.9999 45.9999 91.9999C33.8 91.9999 22.0997 87.1535 13.4731 78.5268C4.84641 69.9002 1.81793e-07 58.1999 0 46Z" fill="white"/>
<path d="M45.9996 56.2221C57.2907 56.2221 66.444 47.0688 66.444 35.7777C66.444 24.4865 57.2907 15.3333 45.9996 15.3333C34.7085 15.3333 25.5552 24.4865 25.5552 35.7777C25.5552 47.0688 34.7085 56.2221 45.9996 56.2221Z" fill="#FF806E"/>
<path fill-rule="evenodd" clip-rule="evenodd" d="M77.7911 77.9239C78.0978 78.4197 78.0007 79.0483 77.5867 79.4419C69.0559 87.5206 57.7491 92.0159 46 91.9999C34.251 92.0159 22.9442 87.5206 14.4134 79.4419C14.2122 79.2496 14.0823 78.9946 14.0452 78.7187C14.008 78.4429 14.0658 78.1626 14.209 77.9239C20.1481 68.0697 32.1541 61.3333 46 61.3333C59.846 61.3333 71.8469 68.0697 77.7911 77.9239Z" fill="#FF806E"/>
</svg>
