<svg viewBox="0 0 56 56" fill="none" xmlns="http://www.w3.org/2000/svg">
<rect width="56" height="56" rx="28" fill="#F1F1F4"/>
<path d="M41.5 27.9992H23.4684M23.4684 27.9992C23.4684 28.8875 23.1317 29.7393 22.535 30.3674C21.9384 30.9955 21.1291 31.3483 20.2853 31.3483C19.4415 31.3483 18.6322 30.9955 18.0356 30.3674C17.4389 29.7393 17.1037 28.8875 17.1037 27.9992M23.4684 27.9992C23.4684 27.111 23.1317 26.2592 22.535 25.6311C21.9384 25.003 21.1291 24.6502 20.2853 24.6502C19.4415 24.6502 18.6322 25.003 18.0356 25.6311C17.4389 26.2592 17.1037 27.111 17.1037 27.9992M17.1037 27.9992H14.5M41.5 38.1494H33.111M33.111 38.1494C33.111 39.0378 32.775 39.8906 32.1782 40.5189C31.5814 41.1471 30.772 41.5 29.9279 41.5C29.0841 41.5 28.2749 41.1456 27.6782 40.5175C27.0815 39.8895 26.7463 39.0376 26.7463 38.1494M33.111 38.1494C33.111 37.261 32.775 36.4097 32.1782 35.7815C31.5814 35.1532 30.772 34.8003 29.9279 34.8003C29.0841 34.8003 28.2749 35.1532 27.6782 35.7812C27.0815 36.4093 26.7463 37.2612 26.7463 38.1494M26.7463 38.1494H14.5M41.5 17.8491H36.9684M36.9684 17.8491C36.9684 18.2889 36.8846 18.7244 36.7247 19.1307C36.5648 19.537 36.3305 19.9062 36.035 20.2172C35.7396 20.5282 35.3889 20.7749 35.0029 20.9432C34.6168 21.1115 34.2031 21.1982 33.7853 21.1982C32.9415 21.1982 32.1322 20.8453 31.5356 20.2172C30.9389 19.5892 30.6037 18.7373 30.6037 17.8491M36.9684 17.8491C36.9684 17.4093 36.8846 16.9738 36.7247 16.5674C36.5648 16.1611 36.3305 15.7919 36.035 15.4809C35.7396 15.1699 35.3889 14.9232 35.0029 14.7549C34.6168 14.5866 34.2031 14.5 33.7853 14.5C32.9415 14.5 32.1322 14.8528 31.5356 15.4809C30.9389 16.109 30.6037 16.9608 30.6037 17.8491M30.6037 17.8491H14.5" stroke="#727692" stroke-width="3" stroke-miterlimit="10" stroke-linecap="round"/>
</svg>
