<svg width="56" height="56" viewBox="0 0 56 56" fill="none" xmlns="http://www.w3.org/2000/svg">
<path d="M27.9998 39.6667C28.6609 39.6667 29.2155 39.4427 29.6635 38.9947C30.1115 38.5467 30.3347 37.993 30.3332 37.3334C30.3316 36.6739 30.1076 36.1201 29.6612 35.6721C29.2147 35.2241 28.6609 35.0001 27.9998 35.0001C27.3387 35.0001 26.785 35.2241 26.3385 35.6721C25.8921 36.1201 25.6681 36.6739 25.6665 37.3334C25.6649 37.993 25.889 38.5475 26.3385 38.9971C26.7881 39.4466 27.3418 39.6699 27.9998 39.6667ZM27.9998 30.3334C28.6609 30.3334 29.2155 30.1094 29.6635 29.6614C30.1115 29.2134 30.3347 28.6596 30.3332 28.0001V18.6667C30.3332 18.0056 30.1092 17.4519 29.6612 17.0054C29.2132 16.559 28.6594 16.335 27.9998 16.3334C27.3403 16.3319 26.7865 16.5559 26.3385 17.0054C25.8905 17.455 25.6665 18.0087 25.6665 18.6667V28.0001C25.6665 28.6612 25.8905 29.2157 26.3385 29.6637C26.7865 30.1117 27.3403 30.335 27.9998 30.3334ZM27.9998 51.3334C24.7721 51.3334 21.7387 50.7205 18.8998 49.4947C16.061 48.269 13.5915 46.6069 11.4915 44.5084C9.39151 42.41 7.7294 39.9405 6.50517 37.1001C5.28095 34.2596 4.66806 31.2263 4.66651 28.0001C4.66495 24.7739 5.27784 21.7405 6.50517 18.9001C7.73251 16.0596 9.39462 13.5902 11.4915 11.4917C13.5884 9.3933 16.0578 7.73119 18.8998 6.50541C21.7418 5.27964 24.7752 4.66675 27.9998 4.66675C31.2245 4.66675 34.2578 5.27964 37.0998 6.50541C39.9418 7.73119 42.4113 9.3933 44.5082 11.4917C46.6051 13.5902 48.2679 16.0596 49.4968 18.9001C50.7257 21.7405 51.3378 24.7739 51.3332 28.0001C51.3285 31.2263 50.7156 34.2596 49.4945 37.1001C48.2734 39.9405 46.6113 42.41 44.5082 44.5084C42.4051 46.6069 39.9356 48.2697 37.0998 49.4971C34.2641 50.7244 31.2307 51.3365 27.9998 51.3334Z" fill="#A1A3B6"/>
</svg>
