<svg width="56" height="56" viewBox="0 0 56 56" fill="none" xmlns="http://www.w3.org/2000/svg">
<path d="M24.0093 9.00666L4.24598 42C3.83851 42.7056 3.62291 43.5057 3.62062 44.3205C3.61834 45.1354 3.82946 45.9366 4.23298 46.6445C4.63649 47.3525 5.21834 47.9424 5.92063 48.3556C6.62293 48.7689 7.42118 48.991 8.23598 49H47.7626C48.5775 48.991 49.3757 48.7689 50.078 48.3556C50.7803 47.9424 51.3621 47.3525 51.7657 46.6445C52.1692 45.9366 52.3803 45.1354 52.378 44.3205C52.3757 43.5057 52.1601 42.7056 51.7527 42L31.9893 9.00666C31.5734 8.3209 30.9877 7.75394 30.2888 7.36045C29.5899 6.96697 28.8014 6.76025 27.9993 6.76025C27.1973 6.76025 26.4088 6.96697 25.7099 7.36045C25.011 7.75394 24.4253 8.3209 24.0093 9.00666Z" fill="#A1A3B6"/>
<path d="M28 21V30.3333" stroke="white" stroke-width="4" stroke-linecap="round" stroke-linejoin="round"/>
<path d="M28 39.6667H28.0233" stroke="white" stroke-width="4" stroke-linecap="round" stroke-linejoin="round"/>
</svg>
