<svg viewBox="0 0 20 20" fill="none" xmlns="http://www.w3.org/2000/svg">
<path d="M17.5 9.99957H7.48243M7.48243 9.99957C7.48243 10.493 7.2954 10.9663 6.96391 11.3152C6.63243 11.6641 6.18284 11.8602 5.71405 11.8602C5.24527 11.8602 4.79568 11.6641 4.4642 11.3152C4.13271 10.9663 3.94649 10.493 3.94649 9.99957M7.48243 9.99957C7.48243 9.50611 7.2954 9.03286 6.96391 8.68393C6.63243 8.335 6.18284 8.13898 5.71405 8.13898C5.24527 8.13898 4.79568 8.335 4.4642 8.68393C4.13271 9.03286 3.94649 9.50611 3.94649 9.99957M3.94649 9.99957H2.5M17.5 15.6385H12.8395M12.8395 15.6385C12.8395 16.1321 12.6528 16.6059 12.3212 16.9549C11.9897 17.3039 11.54 17.5 11.0711 17.5C10.6023 17.5 10.1527 17.3031 9.82122 16.9542C9.48974 16.6053 9.30351 16.132 9.30351 15.6385M12.8395 15.6385C12.8395 15.145 12.6528 14.672 12.3212 14.323C11.9897 13.974 11.54 13.778 11.0711 13.778C10.6023 13.778 10.1527 13.974 9.82122 14.3229C9.48974 14.6718 9.30351 15.1451 9.30351 15.6385M9.30351 15.6385H2.5M17.5 4.3606H14.9824M14.9824 4.3606C14.9824 4.60493 14.9359 4.84688 14.8471 5.07262C14.7582 5.29836 14.628 5.50347 14.4639 5.67624C14.2998 5.84901 14.1049 5.98606 13.8905 6.07957C13.676 6.17307 13.4462 6.22119 13.2141 6.22119C12.7453 6.22119 12.2957 6.02517 11.9642 5.67624C11.6327 5.32731 11.4465 4.85406 11.4465 4.3606M14.9824 4.3606C14.9824 4.11626 14.9359 3.87432 14.8471 3.64858C14.7582 3.42284 14.628 3.21773 14.4639 3.04496C14.2998 2.87218 14.1049 2.73513 13.8905 2.64163C13.676 2.54813 13.4462 2.5 13.2141 2.5C12.7453 2.5 12.2957 2.69603 11.9642 3.04496C11.6327 3.39389 11.4465 3.86714 11.4465 4.3606M11.4465 4.3606H2.5" stroke="currentColor" stroke-width="1.66667" stroke-miterlimit="10" stroke-linecap="round"/>
</svg>
