<svg viewBox="0 0 24 24" fill="none" xmlns="http://www.w3.org/2000/svg">
<path d="M12 3C14.3853 3 16.074 3.00186 17.3535 3.17383C18.4481 3.32095 19.1275 3.57993 19.625 3.9873L19.8281 4.1709C20.3439 4.68663 20.658 5.39607 20.8262 6.64648C20.9982 7.92596 21 9.61472 21 12C21 14.3853 20.9982 16.074 20.8262 17.3535C20.658 18.6042 20.3434 19.3126 19.8281 19.8271V19.8281C19.3129 20.3437 18.6031 20.658 17.3525 20.8262C16.0732 20.9982 14.385 21 12 21C9.61485 21 7.92678 20.9982 6.64746 20.8262C5.5532 20.679 4.87291 20.4199 4.37402 20.0117L4.1709 19.8281C3.65577 19.313 3.34195 18.6039 3.17383 17.3535C3.00186 16.0741 3 14.3853 3 12C3 9.61491 3.0019 7.92683 3.17383 6.64746C3.34192 5.39691 3.65522 4.6863 4.1709 4.16992C4.68656 3.65499 5.39648 3.34186 6.64648 3.17383C7.92602 3.00186 9.61474 3 12 3Z" stroke="currentColor" stroke-width="2"/>
<path d="M14.5 9.75012H17C17.0663 9.75012 17.1299 9.77648 17.1768 9.82336C17.2236 9.87024 17.25 9.93385 17.25 10.0001V12.5001C17.25 12.5664 17.2236 12.63 17.1768 12.6769C17.1299 12.7237 17.0663 12.7501 17 12.7501C16.9337 12.7501 16.8701 12.7237 16.8232 12.6769C16.7764 12.63 16.75 12.5664 16.75 12.5001V10.6046L15.8965 11.4572L13.8838 13.4689C13.6494 13.7031 13.3314 13.8351 13 13.8351C12.6686 13.8351 12.3506 13.7031 12.1162 13.4689H12.1152L10.5312 11.8839C10.4963 11.8489 10.4579 11.8175 10.417 11.7902L10.2871 11.7208L10.1465 11.6779C10.0984 11.6683 10.0493 11.6632 10 11.6632C9.9507 11.6632 9.90163 11.6683 9.85352 11.6779L9.71289 11.7208C9.66743 11.7397 9.62372 11.7629 9.58301 11.7902L9.46875 11.8839L7.17676 14.1769L7.16992 14.1827L7.16406 14.1896C7.14123 14.214 7.11354 14.2336 7.08301 14.2472C7.05236 14.2608 7.01889 14.2681 6.98535 14.2687C6.9519 14.2692 6.91872 14.2627 6.8877 14.2501C6.85664 14.2376 6.82839 14.2191 6.80469 14.1954C6.78095 14.1717 6.7616 14.1436 6.74902 14.1124C6.73653 14.0815 6.73092 14.0481 6.73145 14.0148C6.73204 13.9813 6.73931 13.9477 6.75293 13.9171C6.76654 13.8866 6.78612 13.8589 6.81055 13.8361L6.81738 13.8302L6.82324 13.8234L9.11621 11.5304C9.3506 11.2962 9.66865 11.1652 10 11.1652C10.3314 11.1652 10.6494 11.2962 10.8838 11.5304L12.4688 13.1154V13.1163C12.5384 13.1862 12.6218 13.2416 12.7129 13.2794C12.8039 13.3171 12.9015 13.3361 13 13.3361C13.0985 13.3361 13.1961 13.3171 13.2871 13.2794C13.3782 13.2416 13.4606 13.1852 13.5303 13.1154L15.5439 11.1036L16.3975 10.2501H14.5C14.3622 10.2501 14.2501 10.1379 14.25 10.0001C14.25 9.93385 14.2764 9.87024 14.3232 9.82336C14.3701 9.77648 14.4337 9.75012 14.5 9.75012Z" stroke="currentColor"/>
</svg>
