<svg viewBox="0 0 38 32" fill="none" xmlns="http://www.w3.org/2000/svg">
<g clip-path="url(#clip0_213_2401)">
<path d="M35.253 4H0.666667C0.298477 4 0 4.29848 0 4.66667V29.3712C0 29.9135 0.612913 30.2289 1.05416 29.9137L35.6405 5.20916C36.1683 4.83219 35.9016 4 35.253 4Z" fill="#FFCEC7"/>
<path d="M2.08047 32H36.6668C37.035 32 37.3335 31.7015 37.3335 31.3333V6.62879C37.3335 6.08654 36.7206 5.77113 36.2793 6.0863L1.69298 30.7908C1.16523 31.1678 1.43191 32 2.08047 32Z" fill="#FFB6AC"/>
<circle cx="18.6667" cy="17.3334" r="8.66667" fill="#FFEFED"/>
<circle cx="18.6668" cy="17.3333" r="7.33333" fill="#FF604A"/>
<path d="M27.5286 0.471404C27.7889 0.211054 28.2111 0.211055 28.4714 0.471405L32 4H24L27.5286 0.471404Z" fill="#FFB6AC"/>
<path d="M6.73613 0.423275C6.83626 0.167953 7.08253 0 7.35678 0H16.6435C16.9178 0 17.1641 0.167954 17.2642 0.423275L18.6668 4H5.3335L6.73613 0.423275Z" fill="#FFB6AC"/>
</g>
<defs>
<clipPath id="clip0_213_2401">
<rect width="38" height="32" fill="white"/>
</clipPath>
</defs>
</svg>
