<svg viewBox="0 0 32 32" fill="none" xmlns="http://www.w3.org/2000/svg">
<g clip-path="url(#clip0_213_2452)">
<rect x="2" width="30" height="30" rx="2.66667" fill="#FF806E"/>
<g clip-path="url(#clip1_213_2452)">
<rect y="2.66675" width="29.3333" height="29.3333" rx="2.66667" fill="white"/>
<rect y="2.66675" width="14.6667" height="14.6667" fill="#FFB6AC"/>
<rect y="17.3335" width="14.6667" height="14.6667" fill="#FFCEC7"/>
<rect x="14.6665" y="2.66675" width="14.6667" height="14.6667" fill="#FFCEC7"/>
<rect x="14.6665" y="17.3335" width="14.6667" height="14.6667" fill="#FFB6AC"/>
<path d="M9.6664 10.3882H7.72195V12.3327C7.72195 12.4358 7.68098 12.5347 7.60805 12.6076C7.53512 12.6806 7.4362 12.7215 7.33306 12.7215C7.22992 12.7215 7.13101 12.6806 7.05808 12.6076C6.98515 12.5347 6.94417 12.4358 6.94417 12.3327V10.3882H4.99973C4.89659 10.3882 4.79767 10.3472 4.72474 10.2743C4.65181 10.2014 4.61084 10.1025 4.61084 9.99932C4.61084 9.89618 4.65181 9.79727 4.72474 9.72434C4.79767 9.65141 4.89659 9.61043 4.99973 9.61043H6.94417V7.66599C6.94417 7.56285 6.98515 7.46393 7.05808 7.391C7.13101 7.31807 7.22992 7.2771 7.33306 7.2771C7.4362 7.2771 7.53512 7.31807 7.60805 7.391C7.68098 7.46393 7.72195 7.56285 7.72195 7.66599V9.61043H9.6664C9.76954 9.61043 9.86845 9.65141 9.94138 9.72434C10.0143 9.79727 10.0553 9.89618 10.0553 9.99932C10.0553 10.1025 10.0143 10.2014 9.94138 10.2743C9.86845 10.3472 9.76954 10.3882 9.6664 10.3882Z" fill="#FF604A"/>
<path d="M24.3334 10.3884H19.6667C19.5636 10.3884 19.4647 10.3474 19.3917 10.2745C19.3188 10.2015 19.2778 10.1026 19.2778 9.99948C19.2778 9.89634 19.3188 9.79743 19.3917 9.7245C19.4647 9.65157 19.5636 9.6106 19.6667 9.6106H24.3334C24.4365 9.6106 24.5354 9.65157 24.6084 9.7245C24.6813 9.79743 24.7223 9.89634 24.7223 9.99948C24.7223 10.1026 24.6813 10.2015 24.6084 10.2745C24.5354 10.3474 24.4365 10.3884 24.3334 10.3884Z" fill="#FF9486"/>
<path d="M7.33331 25.211L5.42776 27.1166C5.35646 27.1879 5.26572 27.2235 5.15553 27.2235C5.04535 27.2235 4.95461 27.1879 4.88331 27.1166C4.81202 27.0453 4.77637 26.9545 4.77637 26.8443C4.77637 26.7342 4.81202 26.6434 4.88331 26.5721L6.78887 24.6666L4.88331 22.761C4.81202 22.6897 4.77637 22.599 4.77637 22.4888C4.77637 22.3786 4.81202 22.2879 4.88331 22.2166C4.95461 22.1453 5.04535 22.1096 5.15553 22.1096C5.26572 22.1096 5.35646 22.1453 5.42776 22.2166L7.33331 24.1221L9.23887 22.2166C9.31016 22.1453 9.4009 22.1096 9.51109 22.1096C9.62127 22.1096 9.71202 22.1453 9.78331 22.2166C9.85461 22.2879 9.89026 22.3786 9.89026 22.4888C9.89026 22.599 9.85461 22.6897 9.78331 22.761L7.87776 24.6666L9.78331 26.5721C9.85461 26.6434 9.89026 26.7342 9.89026 26.8443C9.89026 26.9545 9.85461 27.0453 9.78331 27.1166C9.71202 27.1879 9.62127 27.2235 9.51109 27.2235C9.4009 27.2235 9.31016 27.1879 9.23887 27.1166L7.33331 25.211Z" fill="#FF9486"/>
<path d="M19.6667 24.2779H24.3334C24.4365 24.2779 24.5354 24.3189 24.6084 24.3918C24.6813 24.4647 24.7223 24.5636 24.7223 24.6668C24.7223 24.7699 24.6813 24.8688 24.6084 24.9418C24.5354 25.0147 24.4365 25.0557 24.3334 25.0557H19.6667C19.5636 25.0557 19.4647 25.0147 19.3917 24.9418C19.3188 24.8688 19.2778 24.7699 19.2778 24.6668C19.2778 24.5636 19.3188 24.4647 19.3917 24.3918C19.4647 24.3189 19.5636 24.2779 19.6667 24.2779ZM22.0008 21.5557C21.7946 21.5555 21.5966 21.6372 21.4506 21.7829C21.3046 21.9286 21.2225 22.1264 21.2223 22.3327C21.2221 22.5389 21.3038 22.7369 21.4495 22.8829C21.5952 23.0289 21.793 23.111 21.9993 23.1112C22.2056 23.1114 22.4035 23.0297 22.5495 22.884C22.6955 22.7382 22.7776 22.5405 22.7778 22.3342C22.778 22.1279 22.6963 21.93 22.5506 21.784C22.4049 21.638 22.2071 21.5559 22.0008 21.5557ZM22.0008 26.2223C21.7946 26.2221 21.5966 26.3039 21.4506 26.4496C21.3046 26.5953 21.2225 26.7931 21.2223 26.9993C21.2221 27.2056 21.3038 27.4035 21.4495 27.5495C21.5952 27.6955 21.793 27.7777 21.9993 27.7779C22.2056 27.7781 22.4035 27.6963 22.5495 27.5506C22.6955 27.4049 22.7776 27.2072 22.7778 27.0009C22.778 26.7946 22.6963 26.5967 22.5506 26.4507C22.4049 26.3047 22.2071 26.2225 22.0008 26.2223Z" fill="#FF604A"/>
</g>
</g>
<defs>
<clipPath id="clip0_213_2452">
<rect width="32" height="32" fill="white"/>
</clipPath>
<clipPath id="clip1_213_2452">
<rect y="2.66675" width="29.3333" height="29.3333" rx="2.66667" fill="white"/>
</clipPath>
</defs>
</svg>
