<svg viewBox="0 0 24 24" fill="none" xmlns="http://www.w3.org/2000/svg">
<path d="M14.2802 2.78994L20.0402 6.81994C21.1402 7.58994 22.0102 9.24994 22.0102 10.5999V19.3799C22.0102 21.9299 19.9402 21.9999 17.3902 21.9999L15.5 21.9999C15.2239 21.9999 15 21.7761 15 21.4999V17.9999C15 16.3431 13.6569 14.9999 12 14.9999C10.3431 14.9999 9 16.3431 9 17.9999V21.4999C9 21.7761 8.77614 21.9999 8.5 21.9999L6.61023 21.9999C4.06023 21.9999 1.99023 21.9199 1.99023 19.3699V10.4699C1.99023 9.20994 2.78023 7.60994 3.78023 6.82994L8.79023 2.91994C10.3002 1.74994 12.7102 1.68994 14.2802 2.78994Z" fill="currentColor"/>
</svg>
