<svg viewBox="0 0 24 24" fill="none" xmlns="http://www.w3.org/2000/svg">
<path d="M9.4043 3.70728C10.568 2.80767 12.4959 2.76104 13.7061 3.60864L13.707 3.60962L19.4668 7.63892C19.8552 7.91081 20.2509 8.38094 20.5508 8.95532C20.8506 9.52971 21.0097 10.1234 21.0098 10.5999V17.3801C21.0097 19.3776 19.3881 21 17.3906 21.0002H16V18.0002C16 15.7911 14.2091 14.0002 12 14.0002C9.79086 14.0002 8 15.7911 8 18.0002V21.0002H6.61035C4.61559 21.0002 2.99046 19.3707 2.99023 17.3704V10.47L2.99707 10.3C3.0282 9.89059 3.16754 9.39819 3.40723 8.91138C3.64656 8.42535 3.95349 8.01116 4.2627 7.73071L4.39551 7.61841L9.40527 3.70825L9.4043 3.70728Z" stroke="currentColor" stroke-width="2"/>
</svg>
