<svg viewBox="0 0 24 24" fill="none" xmlns="http://www.w3.org/2000/svg">
<path d="M9.4043 3.70728C10.568 2.80767 12.4959 2.76104 13.7061 3.60864L13.707 3.60962L19.4668 7.63892C19.8552 7.91081 20.2509 8.38094 20.5508 8.95532C20.8506 9.52971 21.0097 10.1234 21.0098 10.5999V19.3801C21.0097 19.8848 20.9078 20.1644 20.8047 20.3254C20.7065 20.4788 20.5533 20.6094 20.2832 20.718C19.6632 20.9673 18.7235 21.0002 17.3906 21.0002H16V18.0002C16 15.7911 14.2091 14.0002 12 14.0002C9.79086 14.0002 8 15.7911 8 18.0002V21.0002H6.61035C5.27926 21.0002 4.33921 20.965 3.71973 20.7141C3.44971 20.6047 3.29527 20.4734 3.19629 20.3186C3.09249 20.1561 2.99029 19.8749 2.99023 19.3704V10.47C2.99023 10.0311 3.13335 9.46762 3.40723 8.91138C3.64656 8.42535 3.95349 8.01116 4.2627 7.73071L4.39551 7.61841L9.40527 3.70825L9.4043 3.70728Z" stroke="currentColor" stroke-width="2"/>
</svg>
