<svg viewBox="0 0 69 22" fill="none" xmlns="http://www.w3.org/2000/svg">
<path d="M22.7416 21.5056V1.16612C22.7416 0.72961 22.2172 0.507293 21.9035 0.810793L0.878355 21.1503C0.558947 21.4593 0.777685 22 1.22209 22H22.2472C22.5202 22 22.7416 21.7787 22.7416 21.5056Z" fill="#FF604A"/>
<path d="M34.8 6.08274C34.8 7.31387 34.9448 8.50477 35.2345 9.65543C35.5322 10.8061 35.9909 11.8602 36.6105 12.8177C37.2381 13.7672 38.0267 14.5397 38.9762 15.1351L37.4795 17.2594C36.5381 16.6881 35.7374 15.9237 35.0776 14.9662C34.4258 14.0006 33.9109 12.8982 33.5327 11.659C33.1223 13.043 32.555 14.254 31.8308 15.2921C31.1147 16.3301 30.2617 17.1468 29.272 17.7422L27.6305 15.6904C28.6444 15.0869 29.4893 14.2862 30.1652 13.2885C30.8491 12.2907 31.3561 11.1843 31.686 9.96924C32.0159 8.75421 32.1849 7.50699 32.1929 6.22758V2.36522H34.8V6.08274ZM46.1795 21.2193H43.5965V0.780688H46.1795V21.2193ZM42.2833 21.1942H39.7245V10.1382H36.6588V7.91736H39.7245V0.796138H42.2833V21.1942Z" fill="#3F4150"/>
<path d="M65.9781 12.4823H59.4528V17.3017H68.3024V19.6005H47.9088V17.3017H56.6842V12.4823H50.1334V6.48721L55.194 1.67959H65.9781V12.4823ZM52.8522 10.2567H63.2594V3.9042H52.8522V10.2567Z" fill="#3F4150"/>
<path d="M50.1335 1.67959L50.1335 5.49495L54.1996 1.67959L50.1335 1.67959Z" fill="#FF604A"/>
</svg>
