<svg width="65" height="60" viewBox="0 0 65 60" fill="none" xmlns="http://www.w3.org/2000/svg">
<path d="M37.4558 13.905C39.5428 13.905 41.5443 14.7341 43.02 16.2098C44.4957 17.6855 45.3247 19.687 45.3247 21.7739V51.3609C45.3247 53.4478 44.4957 55.4493 43.02 56.925C41.5443 58.4007 39.5428 59.2298 37.4558 59.2298H20.1443V46.9543C20.1443 44.8674 19.3153 42.8659 17.8396 41.3902C16.3639 39.9145 14.3624 39.0854 12.2754 39.0854H-2.28882e-05V21.7739C-2.28882e-05 19.687 0.829014 17.6855 2.30471 16.2098C3.78041 14.7341 5.78189 13.905 7.86885 13.905H37.4558ZM0.696217 42.233H12.2754C13.5276 42.233 14.7285 42.7304 15.6139 43.6158C16.4993 44.5013 16.9967 45.7021 16.9967 46.9543V58.5335C16.131 58.1409 15.343 57.5959 14.6701 56.9245L2.30524 44.5609C1.63369 43.8877 1.08868 43.0991 0.696217 42.233Z" fill="#FFCEC7"/>
<path d="M23.6707 41.3463H35.3906C36.0575 41.3463 36.3914 40.54 35.9199 40.0685L24.2 28.3486C23.7285 27.8771 22.9222 28.211 22.9222 28.8779V40.5978C22.9222 41.0112 23.2573 41.3463 23.6707 41.3463Z" fill="#FF604A"/>
<rect x="24.4517" y="26.3574" width="28.551" height="8.72392" transform="rotate(-45 24.4517 26.3574)" fill="#FFB6AC"/>
<rect x="31.7417" y="33.6478" width="28.551" height="8.72392" transform="rotate(-45 31.7417 33.6478)" fill="#FF9486"/>
<path d="M45.7622 5.04724L49.9975 0.811983C50.4459 0.363585 51.1729 0.363585 51.6213 0.811984L63.4565 12.6473C63.9049 13.0957 63.9049 13.8227 63.4565 14.2711L59.2213 18.5063L45.7622 5.04724Z" fill="#FF806E"/>
</svg>
