<svg width="24" height="24" viewBox="0 0 24 24" fill="none" xmlns="http://www.w3.org/2000/svg">
<path d="M17.0703 3.72827C18.1748 3.72838 19.0703 4.62377 19.0703 5.72827V14.8416H14.5938C13.4892 14.8416 12.5938 15.737 12.5938 16.8416V21.0955H6.05762C4.95319 21.0955 4.05785 20.1998 4.05762 19.0955V5.72827C4.05762 4.6237 4.95305 3.72827 6.05762 3.72827H17.0703Z" fill="currentColor"/>
<path d="M17.0703 3.72827L17.0704 2.72827H17.0703V3.72827ZM19.0703 14.8416V15.8416H20.0703V14.8416H19.0703ZM12.5938 21.0955V22.0955H13.5938V21.0955H12.5938ZM4.05762 19.0955H3.05762V19.0957L4.05762 19.0955ZM17.0703 3.72827L17.0702 4.72827C17.6226 4.72833 18.0703 5.17615 18.0703 5.72827H19.0703H20.0703C20.0703 4.07139 18.727 2.72843 17.0704 2.72827L17.0703 3.72827ZM19.0703 5.72827H18.0703V14.8416H19.0703H20.0703V5.72827H19.0703ZM19.0703 14.8416V13.8416H14.5938V14.8416V15.8416H19.0703V14.8416ZM14.5938 14.8416V13.8416C12.9369 13.8416 11.5938 15.1847 11.5938 16.8416H12.5938H13.5938C13.5938 16.2893 14.0415 15.8416 14.5938 15.8416V14.8416ZM12.5938 16.8416H11.5938V21.0955H12.5938H13.5938V16.8416H12.5938ZM12.5938 21.0955V20.0955H6.05762V21.0955V22.0955H12.5938V21.0955ZM6.05762 21.0955V20.0955C5.50569 20.0955 5.05774 19.6477 5.05762 19.0952L4.05762 19.0955L3.05762 19.0957C3.05797 20.7519 4.4007 22.0955 6.05762 22.0955V21.0955ZM4.05762 19.0955H5.05762V5.72827H4.05762H3.05762V19.0955H4.05762ZM4.05762 5.72827H5.05762C5.05762 5.17599 5.50533 4.72827 6.05762 4.72827V3.72827V2.72827C4.40076 2.72827 3.05762 4.07142 3.05762 5.72827H4.05762ZM6.05762 3.72827V4.72827H17.0703V3.72827V2.72827H6.05762V3.72827Z" fill="currentColor"/>
<path d="M8.30127 7.95886H14.8263" stroke="white" stroke-width="1.5" stroke-linecap="round"/>
<path d="M8.30127 11.712H14.8263" stroke="white" stroke-width="1.5" stroke-linecap="round"/>
<path d="M8.30127 15.4652H10.7481" stroke="white" stroke-width="1.5" stroke-linecap="round"/>
<path d="M7.25488 3.46815L7.25488 2" stroke="currentColor" stroke-width="2" stroke-linecap="round"/>
<path d="M11.564 3.46815L11.564 2" stroke="currentColor" stroke-width="2" stroke-linecap="round"/>
<path d="M15.873 3.46815L15.873 2" stroke="currentColor" stroke-width="2" stroke-linecap="round"/>
<path d="M15.4282 16.9861H18.7349L14.9282 20.7927V17.4861C14.9282 17.2099 15.1521 16.9861 15.4282 16.9861Z" fill="currentColor" stroke="currentColor"/>
</svg>
