<svg viewBox="0 0 64 64" fill="none" xmlns="http://www.w3.org/2000/svg">
<rect x="30.667" y="10.6667" width="2.66667" height="10.6667" fill="#D9D9D9"/>
<path fill-rule="evenodd" clip-rule="evenodd" d="M29.7261 18.6667H34.2716C35.0275 18.6665 35.7623 18.9154 36.3623 19.375C36.9623 19.8347 37.394 20.4794 37.5906 21.2092L40.5797 32.3032H23.4113L26.4107 21.2092C26.607 20.4799 27.0382 19.8357 27.6375 19.3761C28.2369 18.9165 28.9709 18.6672 29.7261 18.6667ZM48.3547 61.184H15.6465L19.2609 47.764H44.7403L48.3547 61.184Z" fill="#FFB6AC"/>
<path fill-rule="evenodd" clip-rule="evenodd" d="M23.4109 32.3032H40.5759L44.74 47.7641H19.2605L23.4109 32.3032ZM10.7399 58.6073C10.0565 58.6073 9.40106 58.8787 8.91781 59.362C8.43457 59.8452 8.16309 60.5006 8.16309 61.1841C8.16309 61.8675 8.43457 62.5229 8.91781 63.0061C9.40106 63.4894 10.0565 63.7609 10.7399 63.7609H53.2606C53.944 63.7609 54.5994 63.4894 55.0827 63.0061C55.5659 62.5229 55.8374 61.8675 55.8374 61.1841C55.8374 60.5006 55.5659 59.8452 55.0827 59.362C54.5994 58.8787 53.944 58.6073 53.2606 58.6073H10.7399Z" fill="#FF806E"/>
<path d="M33.333 10.6667V0.755754C33.333 0.476862 32.9958 0.337193 32.7986 0.534399L23.2007 10.1323C23.0035 10.3295 23.1432 10.6667 23.4221 10.6667H33.333Z" fill="#FF604A"/>
</svg>
