<svg viewBox="0 0 16 16" fill="none" xmlns="http://www.w3.org/2000/svg">
<g clip-path="url(#clip0_974_919)">
<path d="M0 8C0 10.1217 0.842855 12.1566 2.34315 13.6569C3.84344 15.1571 5.87827 16 8 16C10.1217 16 12.1566 15.1571 13.6569 13.6569C15.1571 12.1566 16 10.1217 16 8C16 5.87827 15.1571 3.84344 13.6569 2.34315C12.1566 0.842855 10.1217 0 8 0C5.87827 0 3.84344 0.842855 2.34315 2.34315C0.842855 3.84344 0 5.87827 0 8Z" fill="#FFB6AC"/>
<path fill-rule="evenodd" clip-rule="evenodd" d="M13.1257 0.433132C13.1013 0.33488 13.0513 0.244867 12.9807 0.172302C12.9101 0.0997361 12.8215 0.0472233 12.724 0.0201356C12.6264 -0.00695211 12.5234 -0.0076424 12.4255 0.0181354C12.3276 0.0439132 12.2384 0.0952336 12.1668 0.166846L9.88109 2.45256C9.81139 2.52242 9.76096 2.60913 9.73472 2.70427C9.70849 2.7994 9.70733 2.89971 9.73138 2.99542L10.1428 4.6457L10.1268 4.6617L7.39424 7.39427C7.24283 7.55676 7.1604 7.77167 7.16432 7.99373C7.16824 8.21579 7.2582 8.42766 7.41524 8.5847C7.57228 8.74174 7.78415 8.8317 8.00621 8.83562C8.22827 8.83954 8.44318 8.75711 8.60567 8.6057L11.3405 5.87427L11.3565 5.85713L13.0057 6.2697C13.1014 6.29375 13.2017 6.2926 13.2968 6.26636C13.3919 6.24012 13.4787 6.1897 13.5485 6.11999L15.8342 3.83428C15.9061 3.76275 15.9577 3.67338 15.9837 3.57534C16.0096 3.4773 16.009 3.37411 15.9819 3.27638C15.9548 3.17865 15.9022 3.0899 15.8294 3.01923C15.7567 2.94856 15.6664 2.89853 15.568 2.87428L13.6148 2.38742L13.1257 0.433132ZM8.36224 0.867418C8.37794 1.09413 8.30297 1.31779 8.15381 1.48924C8.00465 1.66069 7.79351 1.76588 7.56681 1.7817C6.37275 1.86445 5.22754 2.28825 4.26727 3.00275C3.30699 3.71724 2.57202 4.69239 2.14968 5.81233C1.72734 6.93226 1.63539 8.1499 1.88475 9.32056C2.13411 10.4912 2.7143 11.5657 3.55638 12.4163C4.39846 13.2669 5.46704 13.8579 6.63513 14.119C7.80322 14.3801 9.02172 14.3005 10.1459 13.8894C11.27 13.4784 12.2525 12.7532 12.9766 11.8002C13.7007 10.8472 14.136 9.7063 14.2308 8.51313C14.2488 8.28641 14.3562 8.07614 14.5293 7.92857C14.7023 7.78101 14.9269 7.70824 15.1537 7.72628C15.3804 7.74431 15.5907 7.85167 15.7382 8.02474C15.8858 8.19781 15.9586 8.42241 15.9405 8.64913C15.8196 10.1694 15.2648 11.623 14.342 12.8372C13.4193 14.0514 12.1674 14.9752 10.735 15.4988C9.30269 16.0225 7.75014 16.124 6.26183 15.7912C4.77353 15.4584 3.41202 14.7054 2.33908 13.6217C1.26613 12.5379 0.526842 11.1689 0.209049 9.67733C-0.108745 8.18575 0.00831389 6.6343 0.546317 5.2073C1.08432 3.7803 2.02065 2.53772 3.24407 1.62721C4.46749 0.716698 5.92656 0.176517 7.44795 0.0708464C7.67466 0.055145 7.89832 0.130115 8.06977 0.279275C8.24122 0.428435 8.34642 0.640718 8.36224 0.867418ZM7.59424 4.63656C7.63531 4.74139 7.65532 4.85329 7.65313 4.96585C7.65095 5.07842 7.62661 5.18945 7.5815 5.29261C7.5364 5.39577 7.47141 5.48903 7.39026 5.56707C7.3091 5.6451 7.21337 5.70639 7.10852 5.74742C6.73371 5.89444 6.40145 6.13254 6.14177 6.44021C5.88208 6.74788 5.70316 7.11541 5.62118 7.50959C5.5392 7.90377 5.55673 8.31216 5.67221 8.69786C5.78768 9.08355 5.99745 9.43439 6.28255 9.71867C6.56766 10.0029 6.91911 10.2117 7.30514 10.326C7.69117 10.4404 8.09961 10.4567 8.49355 10.3736C8.88748 10.2905 9.25449 10.1105 9.5614 9.8499C9.86831 9.58932 10.1055 9.25637 10.2514 8.88113C10.2922 8.77622 10.3533 8.68039 10.4311 8.59909C10.509 8.51779 10.6021 8.45262 10.7052 8.4073C10.8082 8.36199 10.9192 8.33741 11.0317 8.33498C11.1443 8.33255 11.2562 8.35231 11.3611 8.39313C11.466 8.43395 11.5618 8.49504 11.6431 8.5729C11.7244 8.65076 11.7896 8.74387 11.8349 8.84692C11.8802 8.94997 11.9048 9.06093 11.9072 9.17347C11.9097 9.28602 11.8899 9.39794 11.8491 9.50285C11.5998 10.1436 11.1948 10.7122 10.6706 11.1571C10.1465 11.602 9.51966 11.9093 8.8469 12.0512C8.17414 12.193 7.47663 12.165 6.81744 11.9695C6.15825 11.7741 5.55816 11.4175 5.07142 10.9319C4.58468 10.4463 4.22663 9.847 4.02966 9.18827C3.83268 8.52954 3.80298 7.8321 3.94325 7.15901C4.08352 6.48592 4.38932 5.8584 4.83302 5.33318C5.27673 4.80796 5.84433 4.4016 6.48452 4.15085C6.6961 4.06826 6.93181 4.07303 7.13988 4.1641C7.34795 4.25517 7.51136 4.42509 7.59424 4.63656Z" fill="#FF604A"/>
<circle cx="7.99996" cy="7.99999" r="1.33333" fill="#FF604A"/>
</g>
<defs>
<clipPath id="clip0_974_919">
<rect width="16" height="16" fill="white"/>
</clipPath>
</defs>
</svg>
