<svg viewBox="0 0 20 20" fill="none" xmlns="http://www.w3.org/2000/svg">
<path d="M16.7407 8.53217L4.95735 1.47384C4.70533 1.32831 4.4196 1.25131 4.12858 1.25049C3.83757 1.24968 3.55141 1.32508 3.29858 1.46919C3.04575 1.61331 2.83506 1.82111 2.68747 2.07193C2.53989 2.32275 2.46055 2.60784 2.45735 2.89884L2.45735 17.0155C2.46055 17.3065 2.53989 17.5916 2.68747 17.8424C2.83506 18.0932 3.04575 18.301 3.29858 18.4451C3.55141 18.5893 3.83757 18.6647 4.12858 18.6638C4.4196 18.663 4.70533 18.586 4.95735 18.4405L16.7407 11.3822C16.9856 11.2336 17.1881 11.0244 17.3286 10.7748C17.4691 10.5252 17.543 10.2436 17.543 9.95717C17.543 9.67072 17.4691 9.38911 17.3286 9.13951C17.1881 8.8899 16.9856 8.68073 16.7407 8.53217Z" fill="currentColor"/>
</svg>
