<svg width="584" height="584" viewBox="0 0 584 584" fill="none" xmlns="http://www.w3.org/2000/svg">
<mask id="mask0_262_5811" style="mask-type:luminance" maskUnits="userSpaceOnUse" x="43" y="39" width="498" height="506">
<path d="M292.001 530.28C322.683 530.319 353.07 524.173 381.417 512.196C409.763 500.219 435.511 482.646 457.179 460.488C478.902 438.385 496.129 412.122 507.871 383.208C519.613 354.293 525.638 323.297 525.6 292C525.638 260.703 519.613 229.707 507.871 200.792C496.129 171.877 478.902 145.614 457.179 123.512C435.511 101.354 409.763 83.7811 381.417 71.8039C353.07 59.8267 322.683 53.6808 292.001 53.7194C261.318 53.6808 230.931 59.8267 202.584 71.8039C174.238 83.7811 148.49 101.354 126.822 123.512C105.099 145.614 87.8718 171.877 76.1298 200.792C64.3879 229.707 58.3627 260.703 58.4006 292C58.3627 323.297 64.3879 354.293 76.1298 383.208C87.8718 412.122 105.099 438.385 126.822 460.488C148.49 482.646 174.238 500.219 202.584 512.196C230.931 524.173 261.318 530.319 292.001 530.28Z" fill="white" stroke="white" stroke-width="29.2" stroke-linejoin="round"/>
<path d="M198.551 291.997L268.631 363.481L408.791 220.513" stroke="black" stroke-width="29.2" stroke-linecap="round" stroke-linejoin="round"/>
</mask>
<g mask="url(#mask0_262_5811)">
<path d="M11.6895 6.06348H572.329V577.937H11.6895V6.06348Z" fill="#FF604A"/>
</g>
<rect x="189" y="261.956" width="213" height="112" transform="rotate(-45.1304 189 261.956)" fill="#FF604A"/>
</svg>
