<svg width="268" height="268" viewBox="0 0 268 268" fill="none" xmlns="http://www.w3.org/2000/svg">
<path d="M41.5779 229.872H106.737C110.444 229.872 112.301 225.389 109.679 222.767L44.5205 157.609C41.8989 154.987 37.4163 156.844 37.4163 160.551V225.71C37.4163 228.008 39.2795 229.872 41.5779 229.872Z" fill="#FF604A"/>
<rect x="45.9221" y="146.539" width="158.734" height="48.5022" transform="rotate(-45 45.9221 146.539)" fill="#FFB6AC"/>
<rect x="86.4533" y="187.07" width="158.734" height="48.5022" transform="rotate(-45 86.4533 187.07)" fill="#FF9486"/>
<path d="M164.399 28.0605L188.216 4.24266C190.56 1.89951 194.359 1.89951 196.702 4.24266L263.045 70.5855C265.388 72.9286 265.388 76.7276 263.045 79.0707L239.227 102.889L164.399 28.0605Z" fill="#FF806E"/>
</svg>
