<svg width="327" height="327" viewBox="0 0 327 327" fill="none" xmlns="http://www.w3.org/2000/svg">
<g opacity="0.36">
<path d="M50.7432 280.561H130.27C134.795 280.561 137.061 275.089 133.861 271.89L54.3347 192.363C51.135 189.163 45.6639 191.429 45.6639 195.955V275.481C45.6639 278.286 47.938 280.561 50.7432 280.561Z" fill="#FF9486"/>
<rect x="56.0448" y="178.851" width="193.737" height="59.1973" transform="rotate(-45 56.0448 178.851)" fill="#FFEFED"/>
<rect x="105.516" y="228.321" width="193.737" height="59.1973" transform="rotate(-45 105.516 228.321)" fill="#FFCEC7"/>
<path d="M200.648 34.2484L230.654 4.24292C232.997 1.89978 236.796 1.89978 239.139 4.24293L321.982 87.086C324.325 89.4291 324.325 93.2281 321.982 95.5713L291.977 125.577L200.648 34.2484Z" fill="#FFEFED"/>
</g>
</svg>
