<svg width="268" height="258" viewBox="0 0 268 258" fill="none" xmlns="http://www.w3.org/2000/svg">
<g opacity="0.36">
<path d="M50.7432 245.657H130.27C134.795 245.657 137.061 240.186 133.861 236.987L54.3348 157.46C51.135 154.26 45.664 156.526 45.664 161.052V240.578C45.664 243.383 47.938 245.657 50.7432 245.657Z" fill="#FF9486"/>
<rect x="56.0449" y="143.948" width="193.737" height="59.1973" transform="rotate(-45 56.0449 143.948)" fill="#FFEFED"/>
<rect x="105.514" y="193.418" width="193.737" height="59.1973" transform="rotate(-45 105.514 193.418)" fill="#FFCEC7"/>
<path d="M200.648 -0.654785L230.654 -30.6603C232.997 -33.0034 236.796 -33.0034 239.139 -30.6603L321.982 52.1828C324.325 54.5259 324.325 58.3249 321.982 60.6681L291.977 90.6735L200.648 -0.654785Z" fill="#FFEFED"/>
</g>
</svg>
