<svg width="78" height="78" viewBox="0 0 78 78" fill="none" xmlns="http://www.w3.org/2000/svg">
<path fill-rule="evenodd" clip-rule="evenodd" d="M29.265 30.0886C29.2137 29.2354 29.401 28.3848 29.8059 27.6321C30.2108 26.8794 30.8174 26.2543 31.5576 25.827C32.2978 25.3996 33.1424 25.1868 33.9967 25.2125C34.8511 25.2382 35.6814 25.5013 36.3946 25.9723L65.2142 45.0093C68.938 47.4697 67.3303 53.2561 62.8689 53.4423L54.721 53.7914C53.9852 53.823 53.5453 54.624 53.9135 55.2618L61.8903 69.078C62.5003 70.1354 62.6653 71.3918 62.3489 72.5708C62.0325 73.7498 61.2608 74.7548 60.2034 75.3648C59.146 75.9748 57.8896 76.1398 56.7106 75.8234C55.5316 75.507 54.5265 74.7353 53.9165 73.6779L45.9218 59.8248C45.5536 59.1866 44.6394 59.1672 44.2444 59.7892L39.822 66.7522C37.4312 70.5184 31.6118 69.0162 31.3429 64.5612L29.265 30.0886Z" fill="#FFB6AC"/>
<path fill-rule="evenodd" clip-rule="evenodd" d="M32.2703 4.41524C33.1849 4.4158 34.0619 4.77937 34.7086 5.4261C35.3554 6.07283 35.719 6.94983 35.7195 7.86446L35.7227 15.8357C35.7229 16.2893 35.6337 16.7385 35.4602 17.1577C35.2867 17.5768 35.0324 17.9577 34.7118 18.2786C34.0641 18.9266 33.1856 19.2907 32.2695 19.291C31.3534 19.2913 30.4747 18.9276 29.8267 18.28C29.1787 17.6324 28.8145 16.7539 28.8142 15.8378L28.8255 7.86569C28.8252 7.41233 28.9142 6.96336 29.0875 6.54441C29.2607 6.12546 29.5148 5.74475 29.8352 5.42403C30.1556 5.10331 30.5361 4.84885 30.9549 4.6752C31.3737 4.50155 31.8226 4.41211 32.2759 4.41199L32.2703 4.41524ZM13.3136 20.8268C12.9211 20.6002 12.577 20.2986 12.301 19.939C12.025 19.5795 11.8225 19.1691 11.7052 18.7313C11.4681 17.8472 11.592 16.9051 12.0495 16.1122C12.5071 15.3194 13.2609 14.7408 14.145 14.5038C15.0292 14.2667 15.9713 14.3906 16.7641 14.8481L23.6658 18.8365C24.075 19.0541 24.4361 19.3518 24.7278 19.7119C25.0194 20.072 25.2356 20.4871 25.3633 20.9326C25.4911 21.378 25.5278 21.8446 25.4713 22.3046C25.4149 22.7645 25.2663 23.2084 25.0346 23.6097C24.8029 24.011 24.4928 24.3615 24.1227 24.6404C23.7526 24.9193 23.3301 25.1208 22.8805 25.2329C22.4309 25.3449 21.9633 25.3653 21.5056 25.2928C21.0479 25.2203 20.6095 25.0564 20.2165 24.8108L13.3136 20.8268ZM14.9638 40.7161C14.571 40.9523 14.1352 41.1079 13.6817 41.1739C13.2282 41.2398 12.7661 41.2148 12.3223 41.1002C11.8786 40.9857 11.4621 40.7839 11.0972 40.5067C10.7323 40.2294 10.4262 39.8823 10.1969 39.4855C9.96756 39.0888 9.81955 38.6503 9.76149 38.1957C9.70343 37.7411 9.73649 37.2795 9.85873 36.8378C9.98098 36.3961 10.19 35.9832 10.4735 35.6232C10.757 35.2631 11.1094 34.9632 11.5101 34.7408L18.4142 30.7546C19.204 30.3351 20.1258 30.2385 20.9853 30.4852C21.8449 30.7318 22.5752 31.3025 23.0224 32.0769C23.4695 32.8514 23.5986 33.7692 23.3824 34.6369C23.1662 35.5047 22.6216 36.2547 21.8634 36.7288L14.9638 40.7161ZM51.5285 19.1133C52.3045 18.6476 52.8665 17.8958 53.0935 17.0197C53.3206 16.1437 53.1944 15.2136 52.7423 14.4296C52.2902 13.6457 51.5483 13.0707 50.6763 12.8285C49.8044 12.5862 48.8722 12.6962 48.0805 13.1346L41.1675 17.1183C40.3919 17.5847 39.8306 18.3371 39.6044 19.2133C39.3782 20.0896 39.5052 21.0196 39.9581 21.8031C40.4109 22.5866 41.1534 23.1609 42.0256 23.4023C42.8978 23.6437 43.8299 23.5329 44.6211 23.0937L51.5285 19.1133Z" fill="#FFCEC7"/>
</svg>
