<svg width="66" height="82" viewBox="0 0 66 82" fill="none" xmlns="http://www.w3.org/2000/svg">
<path d="M36.8269 28.5601H59.3322L36.8269 6.12002V28.5601ZM8.18375 0H40.9187L65.47 24.4801V73.4402C65.47 75.6044 64.6078 77.6799 63.073 79.2102C61.5383 80.7405 59.4567 81.6003 57.2862 81.6003H8.18375C6.01328 81.6003 3.93171 80.7405 2.39696 79.2102C0.862213 77.6799 0 75.6044 0 73.4402V8.16002C0 5.99585 0.862213 3.92032 2.39696 2.39002C3.93171 0.859714 6.01328 0 8.18375 0ZM28.3567 42.5953C30.0343 46.2673 32.1621 49.2865 34.6172 51.3674L36.2949 52.673C32.735 53.3258 27.8247 54.4682 22.6281 56.4674L22.178 56.6306L24.2239 52.3874C26.0652 48.8377 27.4156 45.6145 28.3567 42.5953ZM54.872 58.1402C55.6086 57.4058 55.9768 56.4674 56.0177 55.4474C56.1405 54.6314 55.9359 53.8562 55.5267 53.2034C54.3401 51.2858 51.2712 50.3882 46.1972 50.3882L40.9187 50.6738L37.3588 48.3073C34.7809 46.1857 32.4486 42.4729 30.8118 37.8625L30.9755 37.2913C32.3258 31.8649 33.5943 25.2961 30.8936 22.6033C30.5633 22.2834 30.1726 22.0322 29.7441 21.8641C29.3156 21.696 28.8579 21.6144 28.3976 21.6241H27.4156C25.9016 21.6241 24.5512 23.2153 24.183 24.7657C22.669 30.1921 23.5692 33.1705 25.0832 38.1073V38.1481C24.0602 41.7385 22.7508 45.9001 20.664 50.1026L16.7358 57.4466L13.094 59.4458C8.18375 62.5058 5.85138 65.933 5.40127 68.0954C5.2376 68.8706 5.31943 69.5642 5.60587 70.2986L5.72862 70.5026L7.69272 71.7674L9.49315 72.2162C12.8076 72.2162 16.5721 68.3402 21.646 59.6906L22.3825 59.405C26.5972 58.0586 31.8348 57.1202 38.8728 56.345C43.0874 58.4258 48.0386 59.3642 51.1484 59.3642C52.9488 59.3642 54.1764 58.9154 54.872 58.1402ZM53.1944 55.2434L53.5626 55.6922C53.5217 56.1002 53.3989 56.141 53.1944 56.2226H53.0307L52.2532 56.3042C50.371 56.3042 47.4657 55.529 44.4787 54.2234C44.8469 53.8154 45.0106 53.8154 45.4198 53.8154C51.1484 53.8154 52.7852 54.8354 53.1944 55.2434ZM15.6719 61.2002C13.0122 66.0554 10.598 68.7482 8.75661 69.3602C8.9612 67.8098 10.8025 65.117 13.7078 62.465L15.6719 61.2002ZM28.0293 33.0073C27.0882 29.3353 27.0473 26.3569 27.7429 24.6433L28.0293 24.1537L28.6431 24.3577C29.3387 25.3369 29.4206 26.6425 29.0114 28.8457L28.8886 29.4985L28.2339 32.8441L28.0293 33.0073Z" fill="#FF604A"/>
</svg>
