<svg width="77" height="77" viewBox="0 0 77 77" fill="none" xmlns="http://www.w3.org/2000/svg">
<g clip-path="url(#clip0_435_7154)">
<rect x="4.8125" width="72.1875" height="72.1875" rx="6.41667" fill="#FF806E"/>
<g clip-path="url(#clip1_435_7154)">
<rect y="6.41666" width="70.5833" height="70.5833" rx="6.41667" fill="white"/>
<rect y="6.41666" width="35.2917" height="35.2917" fill="#FFCEC7"/>
<rect y="41.7083" width="35.2917" height="35.2917" fill="#FFEFED"/>
<rect x="35.291" y="6.41666" width="35.2917" height="35.2917" fill="#FFEFED"/>
<rect x="35.291" y="41.7083" width="35.2917" height="35.2917" fill="#FFCEC7"/>
<path d="M23.2606 24.9964H18.5818V29.6752C18.5818 29.9234 18.4832 30.1614 18.3077 30.3369C18.1322 30.5124 17.8942 30.6109 17.6461 30.6109C17.3979 30.6109 17.1599 30.5124 16.9844 30.3369C16.8089 30.1614 16.7103 29.9234 16.7103 29.6752V24.9964H12.0315C11.7833 24.9964 11.5453 24.8978 11.3698 24.7223C11.1943 24.5468 11.0957 24.3088 11.0957 24.0606C11.0957 23.8124 11.1943 23.5744 11.3698 23.3989C11.5453 23.2234 11.7833 23.1248 12.0315 23.1248H16.7103V18.446C16.7103 18.1978 16.8089 17.9598 16.9844 17.7843C17.1599 17.6088 17.3979 17.5103 17.6461 17.5103C17.8942 17.5103 18.1322 17.6088 18.3077 17.7843C18.4832 17.9598 18.5818 18.1978 18.5818 18.446V23.1248H23.2606C23.5088 23.1248 23.7468 23.2234 23.9223 23.3989C24.0978 23.5744 24.1964 23.8124 24.1964 24.0606C24.1964 24.3088 24.0978 24.5468 23.9223 24.7223C23.7468 24.8978 23.5088 24.9964 23.2606 24.9964Z" fill="#FF604A"/>
<path d="M58.5536 24.9964H47.3244C47.0763 24.9964 46.8382 24.8978 46.6628 24.7223C46.4873 24.5468 46.3887 24.3088 46.3887 24.0606C46.3887 23.8124 46.4873 23.5744 46.6628 23.3989C46.8382 23.2234 47.0763 23.1248 47.3244 23.1248H58.5536C58.8018 23.1248 59.0398 23.2234 59.2153 23.3989C59.3908 23.5744 59.4894 23.8124 59.4894 24.0606C59.4894 24.3088 59.3908 24.5468 59.2153 24.7223C59.0398 24.8978 58.8018 24.9964 58.5536 24.9964Z" fill="#FF9486"/>
<path d="M17.6448 60.6642L13.0596 65.2495C12.888 65.421 12.6697 65.5068 12.4046 65.5068C12.1394 65.5068 11.9211 65.421 11.7495 65.2495C11.578 65.0779 11.4922 64.8596 11.4922 64.5944C11.4922 64.3293 11.578 64.111 11.7495 63.9394L16.3348 59.3542L11.7495 54.7689C11.578 54.5974 11.4922 54.379 11.4922 54.1139C11.4922 53.8487 11.578 53.6304 11.7495 53.4588C11.9211 53.2873 12.1394 53.2015 12.4046 53.2015C12.6697 53.2015 12.888 53.2873 13.0596 53.4588L17.6448 58.0441L22.2301 53.4588C22.4016 53.2873 22.62 53.2015 22.8851 53.2015C23.1502 53.2015 23.3686 53.2873 23.5401 53.4588C23.7117 53.6304 23.7975 53.8487 23.7975 54.1139C23.7975 54.379 23.7117 54.5974 23.5401 54.7689L18.9549 59.3542L23.5401 63.9394C23.7117 64.111 23.7975 64.3293 23.7975 64.5944C23.7975 64.8596 23.7117 65.0779 23.5401 65.2495C23.3686 65.421 23.1502 65.5068 22.8851 65.5068C22.62 65.5068 22.4016 65.421 22.2301 65.2495L17.6448 60.6642Z" fill="#FF9486"/>
<path d="M47.3244 58.4184H58.5536C58.8018 58.4184 59.0398 58.517 59.2153 58.6925C59.3908 58.868 59.4894 59.106 59.4894 59.3542C59.4894 59.6023 59.3908 59.8403 59.2153 60.0158C59.0398 60.1913 58.8018 60.2899 58.5536 60.2899H47.3244C47.0763 60.2899 46.8382 60.1913 46.6628 60.0158C46.4873 59.8403 46.3887 59.6023 46.3887 59.3542C46.3887 59.106 46.4873 58.868 46.6628 58.6925C46.8382 58.517 47.0763 58.4184 47.3244 58.4184ZM52.9409 51.868C52.4445 51.8675 51.9683 52.0642 51.617 52.4149C51.2656 52.7655 51.068 53.2413 51.0675 53.7377C51.067 54.2341 51.2637 54.7103 51.6143 55.0616C51.965 55.4129 52.4408 55.6106 52.9371 55.6111C53.4335 55.6116 53.9097 55.4149 54.2611 55.0643C54.6124 54.7136 54.8101 54.2378 54.8105 53.7414C54.811 53.2451 54.6143 52.7689 54.2637 52.4175C53.9131 52.0662 53.4373 51.8685 52.9409 51.868ZM52.9409 63.0972C52.4445 63.0967 51.9683 63.2934 51.617 63.644C51.2656 63.9947 51.068 64.4705 51.0675 64.9669C51.067 65.4632 51.2637 65.9395 51.6143 66.2908C51.965 66.6421 52.4408 66.8398 52.9371 66.8403C53.4335 66.8408 53.9097 66.6441 54.2611 66.2934C54.6124 65.9428 54.8101 65.467 54.8105 64.9706C54.811 64.4742 54.6143 63.998 54.2637 63.6467C53.9131 63.2954 53.4373 63.0977 52.9409 63.0972Z" fill="#FF604A"/>
</g>
</g>
<defs>
<clipPath id="clip0_435_7154">
<rect width="77" height="77" fill="white"/>
</clipPath>
<clipPath id="clip1_435_7154">
<rect y="6.41666" width="70.5833" height="70.5833" rx="6.41667" fill="white"/>
</clipPath>
</defs>
</svg>
