<svg width="83" height="83" viewBox="0 0 83 83" fill="none" xmlns="http://www.w3.org/2000/svg">
<path d="M12.8345 70.9557H32.9471C34.0915 70.9557 34.6647 69.572 33.8554 68.7628L13.7429 48.6502C12.9336 47.841 11.55 48.4141 11.55 49.5586V69.6711C11.55 70.3806 12.1251 70.9557 12.8345 70.9557Z" fill="#515468"/>
<rect x="14.1737" y="45.2329" width="48.9967" height="14.9712" transform="rotate(-45 14.1737 45.2329)" fill="#D3D5DD"/>
<rect x="26.6835" y="57.7442" width="48.9967" height="14.9712" transform="rotate(-45 26.6835 57.7442)" fill="#BEC0CD"/>
<path d="M50.746 8.66235L58.2238 1.18458C58.8775 0.530839 59.9374 0.53084 60.5911 1.18458L81.321 21.9144C81.9747 22.5682 81.9747 23.6281 81.321 24.2818L73.8432 31.7596L50.746 8.66235Z" fill="#686B85"/>
</svg>
