<svg width="100" height="122" viewBox="0 0 100 122" fill="none" xmlns="http://www.w3.org/2000/svg">
<path d="M100 90.5357V40.7307C100 37.936 97.7172 35.5889 94.9284 35.5889H68.1484C66.1747 35.5889 64.3818 36.7821 63.5587 38.5798L60.8577 44.5224C60.0345 46.3201 58.2417 47.5153 56.2679 47.5153H10.0025C7.21369 47.5153 5 49.7358 5 52.5306V98.6099C5 101.404 7.21369 103.74 10.0025 103.74H94.9284C95.0619 103.74 95.1937 103.663 95.3244 103.653V113.324H95.3971C95.3971 114.602 96.4336 115.589 97.6985 115.589C98.9635 115.589 100 114.531 100 113.263V90.5357Z" fill="#E85743"/>
<rect x="21.9512" width="76" height="100" rx="8" transform="rotate(7.60441 21.9512 0)" fill="#D3D5DD"/>
<rect x="16.7402" y="6.95532" width="76" height="100" rx="8" transform="rotate(4.17469 16.7402 6.95532)" fill="#F1F1F4"/>
<rect x="9" y="14.5889" width="76" height="100" rx="8" fill="white"/>
<rect x="15" y="21.5889" width="31" height="26" rx="4" fill="#F1F1F4"/>
<rect x="15" y="50.5889" width="31" height="26" rx="4" fill="#D3D5DD"/>
<rect x="48" y="21.5889" width="31" height="26" rx="4" fill="#D3D5DD"/>
<rect x="48" y="50.5889" width="31" height="26" rx="4" fill="#F1F1F4"/>
<path d="M97.7436 115.329C96.4738 115.329 95.4334 114.344 95.4334 113.069H95.3604V65.7266C95.3604 62.9384 93.1547 60.5889 90.3554 60.5889H5.10722C2.30785 60.5889 0 62.9384 0 65.7266V116.548C0 119.336 2.30785 121.568 5.10722 121.568H90.3554C90.6508 121.568 90.9401 121.556 91.2217 121.507C91.5714 121.555 91.9279 121.589 92.291 121.589C96.5662 121.589 100 118.141 100 113.883C100 113.769 99.9923 113.658 99.9876 113.546C99.7429 114.558 98.8281 115.329 97.7436 115.329Z" fill="#FFB6AC"/>
</svg>
