<svg width="53" height="53" viewBox="0 0 53 53" fill="none" xmlns="http://www.w3.org/2000/svg">
<path d="M18.3657 9.0322C19.9319 4.44799 26.2648 4.30916 28.1217 8.61569L28.2788 9.03482L30.3924 15.217C30.8768 16.6347 31.6595 17.9321 32.6878 19.0216C33.7161 20.1112 34.9661 20.9674 36.3534 21.5327L36.9217 21.7449L43.1026 23.8562C47.686 25.4227 47.8248 31.7568 43.5217 33.614L43.1026 33.7712L36.9217 35.8852C35.5037 36.3693 34.206 37.1521 33.1163 38.1806C32.0265 39.2091 31.17 40.4595 30.6045 41.8473L30.3924 42.4131L28.2815 48.5979C26.7153 53.1821 20.3824 53.3209 18.5281 49.017L18.3657 48.5979L16.2548 42.4157C15.7707 40.9975 14.9881 39.6995 13.9598 38.6096C12.9315 37.5196 11.6814 36.6629 10.2938 36.0974L9.72813 35.8852L3.54718 33.7738C-1.03877 32.2073 -1.17758 25.8733 3.12813 24.0186L3.54718 23.8562L9.72813 21.7449C11.1456 21.2604 12.4428 20.4775 13.5321 19.449C14.6214 18.4205 15.4775 17.1703 16.0426 15.7828L16.2548 15.217L18.3657 9.0322ZM44.276 4.7332e-07C44.7659 -6.1814e-07 45.2461 0.137469 45.6618 0.396787C46.0776 0.656105 46.4123 1.02687 46.6279 1.46695L46.7536 1.77343L47.6702 4.46109L50.36 5.37793C50.851 5.54479 51.2815 5.85368 51.5968 6.26548C51.9121 6.67727 52.0981 7.17342 52.1312 7.69105C52.1643 8.20868 52.043 8.72449 51.7827 9.1731C51.5224 9.62172 51.1348 9.98294 50.6691 10.211L50.36 10.3367L47.6729 11.2536L46.7562 13.9439C46.5891 14.4348 46.28 14.8651 45.8681 15.1803C45.4563 15.4954 44.9602 15.6811 44.4426 15.7139C43.9251 15.7468 43.4095 15.6252 42.9612 15.3646C42.5128 15.1041 42.1518 14.7163 41.9241 14.2503L41.7984 13.9439L40.8817 11.2562L38.1919 10.3394C37.7009 10.1725 37.2705 9.86361 36.9551 9.45181C36.6398 9.04002 36.4538 8.54387 36.4207 8.02624C36.3876 7.50861 36.5089 6.9928 36.7692 6.54419C37.0295 6.09558 37.4171 5.73435 37.8829 5.50629L38.1919 5.38055L40.8791 4.46371L41.7957 1.77343C41.9723 1.25588 42.3065 0.806582 42.7513 0.488543C43.196 0.170504 43.7292 -0.000328181 44.276 4.7332e-07Z" fill="url(#paint0_linear_435_7194)"/>
<path d="M27.8671 21.9048C28.1411 21.9048 28.3782 21.9733 28.5784 22.1103C28.7787 22.2473 28.8788 22.4686 28.8788 22.7742V32.4639C28.8788 32.7695 28.7787 32.9908 28.5784 33.1278C28.3782 33.2648 28.1411 33.3333 27.8671 33.3333C27.5931 33.3333 27.356 33.2648 27.1558 33.1278C26.9556 32.9908 26.8555 32.7695 26.8555 32.4639V22.7742C26.8555 22.4686 26.9556 22.2473 27.1558 22.1103C27.356 21.9733 27.5931 21.9048 27.8671 21.9048Z" fill="white"/>
<path d="M20.099 21.9045C20.373 21.9045 20.6101 21.9678 20.8103 22.0942C21.0105 22.2207 21.1844 22.4683 21.3319 22.8372L24.8885 32.0053C25.0045 32.3109 25.0045 32.5744 24.8885 32.7957C24.7726 33.017 24.5829 33.1698 24.3195 33.2541C24.056 33.3384 23.7926 33.3489 23.5291 33.2857C23.2762 33.2225 23.0918 33.0222 22.9759 32.685L22.0591 30.1559H18.0757L17.143 32.7483C17.0271 33.0539 16.848 33.2383 16.6056 33.3015C16.3738 33.3542 16.1314 33.3384 15.8785 33.2541C15.6256 33.1698 15.4411 33.0275 15.3252 32.8273C15.2093 32.6271 15.2093 32.3794 15.3252 32.0844L18.8818 22.8372C19.0188 22.4683 19.1874 22.2207 19.3877 22.0942C19.5984 21.9678 19.8355 21.9045 20.099 21.9045ZM20.0674 24.4337C19.9831 24.7498 19.8988 25.0344 19.8145 25.2873C19.7407 25.5297 19.6406 25.83 19.5141 26.1883L18.6763 28.4803H21.4584L20.6364 26.1883C20.4994 25.8195 20.3888 25.5033 20.3045 25.2399C20.2307 24.9764 20.1517 24.7077 20.0674 24.4337Z" fill="white"/>
<defs>
<linearGradient id="paint0_linear_435_7194" x1="52.1366" y1="26.0719" x2="-1.18763e-06" y2="26.0719" gradientUnits="userSpaceOnUse">
<stop stop-color="#FF634D"/>
<stop offset="1" stop-color="#FF9F91"/>
</linearGradient>
</defs>
</svg>
