<svg width="96" height="82" viewBox="0 0 96 82" fill="none" xmlns="http://www.w3.org/2000/svg">
<path d="M25.8973 74.0637C33.6139 74.0637 38.7755 76.948 41.0528 78.5746C41.8899 79.0388 44.2624 80.4333 44.7722 80.479V10.1843C41.7511 4.55856 32.87 0.00396807 23.6656 0.00396807C12.0411 0.00396807 2.18604 6.69898 0 11.2079V76.8567C0 79.9255 1.81311 81.088 3.99915 81.088C5.76465 81.088 6.9271 80.4829 8.04393 79.5526C10.7874 77.0888 17.2483 74.0637 25.8973 74.0637ZM69.2294 74.0656C77.8763 74.0656 84.2936 77.0888 87.0827 79.5526C88.1499 80.4353 89.3144 81.086 91.0799 81.086C93.2659 81.086 95.079 79.9255 95.079 76.8567V11.204C92.893 6.69303 83.0836 0 71.459 0C62.2547 0 53.3736 4.55459 50.3524 10.1804V80.5742C50.8642 80.5266 53.2347 79.0864 54.1175 78.5746C56.3492 76.948 61.5108 74.0656 69.2294 74.0656Z" fill="#FFCEC7"/>
<path d="M91.0781 27.5056V13.1442C91.0781 12.7109 90.5604 12.4873 90.2449 12.7842L74.9859 27.1456C74.6599 27.4525 74.877 28 75.3247 28H90.5837C90.8568 28 91.0781 27.7787 91.0781 27.5056Z" fill="#FF9486"/>
</svg>
